<?xml version="1.0" encoding="us-ascii" standalone="no"?><svg xmlns="http://www.w3.org/2000/svg" xmlns:xlink="http://www.w3.org/1999/xlink" contentStyleType="text/css" height="690px" preserveAspectRatio="none" style="width:1845px;height:690px;background:#FFFFFF;" version="1.1" viewBox="0 0 1845 690" width="1845px" zoomAndPan="magnify"><defs/><g><!--class Entity--><g id="elem_Entity"><rect codeLine="2" fill="#F1F1F1" height="32" id="Entity" rx="2.5" ry="2.5" style="stroke:#181818;stroke-width:0.5;" width="70" x="595.5" y="99"/><ellipse cx="610.5" cy="115" fill="#ADD1B2" rx="11" ry="11" style="stroke:#181818;stroke-width:1.0;"/><path d="M613.4688,120.6406 Q612.8906,120.9375 612.25,121.0781 Q611.6094,121.2344 610.9063,121.2344 Q608.4063,121.2344 607.0781,119.5938 Q605.7656,117.9375 605.7656,114.8125 Q605.7656,111.6875 607.0781,110.0313 Q608.4063,108.375 610.9063,108.375 Q611.6094,108.375 612.25,108.5313 Q612.9063,108.6875 613.4688,108.9844 L613.4688,111.7031 Q612.8438,111.125 612.25,110.8594 Q611.6563,110.5781 611.0313,110.5781 Q609.6875,110.5781 609,111.6563 Q608.3125,112.7188 608.3125,114.8125 Q608.3125,116.9063 609,117.9844 Q609.6875,119.0469 611.0313,119.0469 Q611.6563,119.0469 612.25,118.7813 Q612.8438,118.5 613.4688,117.9219 L613.4688,120.6406 Z " fill="#000000"/><text fill="#000000" font-family="sans-serif" font-size="14" lengthAdjust="spacing" textLength="38" x="624.5" y="119.8467">Entity</text></g><!--class FamixBaseElement--><g id="elem_FamixBaseElement"><rect codeLine="485" fill="#F1F1F1" height="32" id="FamixBaseElement" rx="2.5" ry="2.5" style="stroke:#181818;stroke-width:0.5;" width="163" x="549" y="7"/><ellipse cx="564" cy="23" fill="#A9DCDF" rx="11" ry="11" style="stroke:#181818;stroke-width:1.0;"/><path d="M564.1094,18.3438 L562.9531,23.4219 L565.2813,23.4219 L564.1094,18.3438 Z M562.625,16.1094 L565.6094,16.1094 L568.9688,28.5 L566.5156,28.5 L565.75,25.4375 L562.4688,25.4375 L561.7188,28.5 L559.2813,28.5 L562.625,16.1094 Z " fill="#000000"/><text fill="#000000" font-family="sans-serif" font-size="14" font-style="italic" lengthAdjust="spacing" textLength="131" x="578" y="27.8467">FamixBaseElement</text></g><!--class SourceLanguage--><g id="elem_SourceLanguage"><rect codeLine="6" fill="#F1F1F1" height="32" id="SourceLanguage" rx="2.5" ry="2.5" style="stroke:#181818;stroke-width:0.5;" width="149" x="228" y="191"/><ellipse cx="243" cy="207" fill="#ADD1B2" rx="11" ry="11" style="stroke:#181818;stroke-width:1.0;"/><path d="M245.9688,212.6406 Q245.3906,212.9375 244.75,213.0781 Q244.1094,213.2344 243.4063,213.2344 Q240.9063,213.2344 239.5781,211.5938 Q238.2656,209.9375 238.2656,206.8125 Q238.2656,203.6875 239.5781,202.0313 Q240.9063,200.375 243.4063,200.375 Q244.1094,200.375 244.75,200.5313 Q245.4063,200.6875 245.9688,200.9844 L245.9688,203.7031 Q245.3438,203.125 244.75,202.8594 Q244.1563,202.5781 243.5313,202.5781 Q242.1875,202.5781 241.5,203.6563 Q240.8125,204.7188 240.8125,206.8125 Q240.8125,208.9063 241.5,209.9844 Q242.1875,211.0469 243.5313,211.0469 Q244.1563,211.0469 244.75,210.7813 Q245.3438,210.5 245.9688,209.9219 L245.9688,212.6406 Z " fill="#000000"/><text fill="#000000" font-family="sans-serif" font-size="14" lengthAdjust="spacing" textLength="117" x="257" y="211.8467">SourceLanguage</text></g><!--class Comment--><g id="elem_Comment"><rect codeLine="13" fill="#F1F1F1" height="32" id="Comment" rx="2.5" ry="2.5" style="stroke:#181818;stroke-width:0.5;" width="100" x="439.5" y="283"/><ellipse cx="454.5" cy="299" fill="#ADD1B2" rx="11" ry="11" style="stroke:#181818;stroke-width:1.0;"/><path d="M457.4688,304.6406 Q456.8906,304.9375 456.25,305.0781 Q455.6094,305.2344 454.9063,305.2344 Q452.4063,305.2344 451.0781,303.5938 Q449.7656,301.9375 449.7656,298.8125 Q449.7656,295.6875 451.0781,294.0313 Q452.4063,292.375 454.9063,292.375 Q455.6094,292.375 456.25,292.5313 Q456.9063,292.6875 457.4688,292.9844 L457.4688,295.7031 Q456.8438,295.125 456.25,294.8594 Q455.6563,294.5781 455.0313,294.5781 Q453.6875,294.5781 453,295.6563 Q452.3125,296.7188 452.3125,298.8125 Q452.3125,300.9063 453,301.9844 Q453.6875,303.0469 455.0313,303.0469 Q455.6563,303.0469 456.25,302.7813 Q456.8438,302.5 457.4688,301.9219 L457.4688,304.6406 Z " fill="#000000"/><text fill="#000000" font-family="sans-serif" font-size="14" lengthAdjust="spacing" textLength="68" x="468.5" y="303.8467">Comment</text></g><!--class SourcedEntity--><g id="elem_SourcedEntity"><rect codeLine="30" fill="#F1F1F1" height="32" id="SourcedEntity" rx="2.5" ry="2.5" style="stroke:#181818;stroke-width:0.5;" width="128" x="566.5" y="191"/><ellipse cx="581.5" cy="207" fill="#ADD1B2" rx="11" ry="11" style="stroke:#181818;stroke-width:1.0;"/><path d="M584.4688,212.6406 Q583.8906,212.9375 583.25,213.0781 Q582.6094,213.2344 581.9063,213.2344 Q579.4063,213.2344 578.0781,211.5938 Q576.7656,209.9375 576.7656,206.8125 Q576.7656,203.6875 578.0781,202.0313 Q579.4063,200.375 581.9063,200.375 Q582.6094,200.375 583.25,200.5313 Q583.9063,200.6875 584.4688,200.9844 L584.4688,203.7031 Q583.8438,203.125 583.25,202.8594 Q582.6563,202.5781 582.0313,202.5781 Q580.6875,202.5781 580,203.6563 Q579.3125,204.7188 579.3125,206.8125 Q579.3125,208.9063 580,209.9844 Q580.6875,211.0469 582.0313,211.0469 Q582.6563,211.0469 583.25,210.7813 Q583.8438,210.5 584.4688,209.9219 L584.4688,212.6406 Z " fill="#000000"/><text fill="#000000" font-family="sans-serif" font-size="14" lengthAdjust="spacing" textLength="96" x="595.5" y="211.8467">SourcedEntity</text></g><!--class SourceAnchor--><g id="elem_SourceAnchor"><rect codeLine="23" fill="#F1F1F1" height="32" id="SourceAnchor" rx="2.5" ry="2.5" style="stroke:#181818;stroke-width:0.5;" width="130" x="1095.5" y="191"/><ellipse cx="1110.5" cy="207" fill="#ADD1B2" rx="11" ry="11" style="stroke:#181818;stroke-width:1.0;"/><path d="M1113.4688,212.6406 Q1112.8906,212.9375 1112.25,213.0781 Q1111.6094,213.2344 1110.9063,213.2344 Q1108.4063,213.2344 1107.0781,211.5938 Q1105.7656,209.9375 1105.7656,206.8125 Q1105.7656,203.6875 1107.0781,202.0313 Q1108.4063,200.375 1110.9063,200.375 Q1111.6094,200.375 1112.25,200.5313 Q1112.9063,200.6875 1113.4688,200.9844 L1113.4688,203.7031 Q1112.8438,203.125 1112.25,202.8594 Q1111.6563,202.5781 1111.0313,202.5781 Q1109.6875,202.5781 1109,203.6563 Q1108.3125,204.7188 1108.3125,206.8125 Q1108.3125,208.9063 1109,209.9844 Q1109.6875,211.0469 1111.0313,211.0469 Q1111.6563,211.0469 1112.25,210.7813 Q1112.8438,210.5 1113.4688,209.9219 L1113.4688,212.6406 Z " fill="#000000"/><text fill="#000000" font-family="sans-serif" font-size="14" lengthAdjust="spacing" textLength="98" x="1124.5" y="211.8467">SourceAnchor</text></g><!--class Association--><g id="elem_Association"><rect codeLine="46" fill="#F1F1F1" height="32" id="Association" rx="2.5" ry="2.5" style="stroke:#181818;stroke-width:0.5;" width="111" x="575" y="283"/><ellipse cx="590" cy="299" fill="#ADD1B2" rx="11" ry="11" style="stroke:#181818;stroke-width:1.0;"/><path d="M592.9688,304.6406 Q592.3906,304.9375 591.75,305.0781 Q591.1094,305.2344 590.4063,305.2344 Q587.9063,305.2344 586.5781,303.5938 Q585.2656,301.9375 585.2656,298.8125 Q585.2656,295.6875 586.5781,294.0313 Q587.9063,292.375 590.4063,292.375 Q591.1094,292.375 591.75,292.5313 Q592.4063,292.6875 592.9688,292.9844 L592.9688,295.7031 Q592.3438,295.125 591.75,294.8594 Q591.1563,294.5781 590.5313,294.5781 Q589.1875,294.5781 588.5,295.6563 Q587.8125,296.7188 587.8125,298.8125 Q587.8125,300.9063 588.5,301.9844 Q589.1875,303.0469 590.5313,303.0469 Q591.1563,303.0469 591.75,302.7813 Q592.3438,302.5 592.9688,301.9219 L592.9688,304.6406 Z " fill="#000000"/><text fill="#000000" font-family="sans-serif" font-size="14" lengthAdjust="spacing" textLength="79" x="604" y="303.8467">Association</text></g><!--class Namespace--><g id="elem_Namespace"><rect codeLine="56" fill="#F1F1F1" height="32" id="Namespace" rx="2.5" ry="2.5" style="stroke:#181818;stroke-width:0.5;" width="114" x="282.5" y="559"/><ellipse cx="297.5" cy="575" fill="#ADD1B2" rx="11" ry="11" style="stroke:#181818;stroke-width:1.0;"/><path d="M300.4688,580.6406 Q299.8906,580.9375 299.25,581.0781 Q298.6094,581.2344 297.9063,581.2344 Q295.4063,581.2344 294.0781,579.5938 Q292.7656,577.9375 292.7656,574.8125 Q292.7656,571.6875 294.0781,570.0313 Q295.4063,568.375 297.9063,568.375 Q298.6094,568.375 299.25,568.5313 Q299.9063,568.6875 300.4688,568.9844 L300.4688,571.7031 Q299.8438,571.125 299.25,570.8594 Q298.6563,570.5781 298.0313,570.5781 Q296.6875,570.5781 296,571.6563 Q295.3125,572.7188 295.3125,574.8125 Q295.3125,576.9063 296,577.9844 Q296.6875,579.0469 298.0313,579.0469 Q298.6563,579.0469 299.25,578.7813 Q299.8438,578.5 300.4688,577.9219 L300.4688,580.6406 Z " fill="#000000"/><text fill="#000000" font-family="sans-serif" font-size="14" lengthAdjust="spacing" textLength="82" x="311.5" y="579.8467">Namespace</text></g><!--class ScopingEntity--><g id="elem_ScopingEntity"><rect codeLine="66" fill="#F1F1F1" height="32" id="ScopingEntity" rx="2.5" ry="2.5" style="stroke:#181818;stroke-width:0.5;" width="126" x="423.5" y="467"/><ellipse cx="438.5" cy="483" fill="#ADD1B2" rx="11" ry="11" style="stroke:#181818;stroke-width:1.0;"/><path d="M441.4688,488.6406 Q440.8906,488.9375 440.25,489.0781 Q439.6094,489.2344 438.9063,489.2344 Q436.4063,489.2344 435.0781,487.5938 Q433.7656,485.9375 433.7656,482.8125 Q433.7656,479.6875 435.0781,478.0313 Q436.4063,476.375 438.9063,476.375 Q439.6094,476.375 440.25,476.5313 Q440.9063,476.6875 441.4688,476.9844 L441.4688,479.7031 Q440.8438,479.125 440.25,478.8594 Q439.6563,478.5781 439.0313,478.5781 Q437.6875,478.5781 437,479.6563 Q436.3125,480.7188 436.3125,482.8125 Q436.3125,484.9063 437,485.9844 Q437.6875,487.0469 439.0313,487.0469 Q439.6563,487.0469 440.25,486.7813 Q440.8438,486.5 441.4688,485.9219 L441.4688,488.6406 Z " fill="#000000"/><text fill="#000000" font-family="sans-serif" font-size="14" lengthAdjust="spacing" textLength="94" x="452.5" y="487.8467">ScopingEntity</text></g><!--class ContainerEntity--><g id="elem_ContainerEntity"><rect codeLine="202" fill="#F1F1F1" height="32" id="ContainerEntity" rx="2.5" ry="2.5" style="stroke:#181818;stroke-width:0.5;" width="137" x="851" y="375"/><ellipse cx="866" cy="391" fill="#ADD1B2" rx="11" ry="11" style="stroke:#181818;stroke-width:1.0;"/><path d="M868.9688,396.6406 Q868.3906,396.9375 867.75,397.0781 Q867.1094,397.2344 866.4063,397.2344 Q863.9063,397.2344 862.5781,395.5938 Q861.2656,393.9375 861.2656,390.8125 Q861.2656,387.6875 862.5781,386.0313 Q863.9063,384.375 866.4063,384.375 Q867.1094,384.375 867.75,384.5313 Q868.4063,384.6875 868.9688,384.9844 L868.9688,387.7031 Q868.3438,387.125 867.75,386.8594 Q867.1563,386.5781 866.5313,386.5781 Q865.1875,386.5781 864.5,387.6563 Q863.8125,388.7188 863.8125,390.8125 Q863.8125,392.9063 864.5,393.9844 Q865.1875,395.0469 866.5313,395.0469 Q867.1563,395.0469 867.75,394.7813 Q868.3438,394.5 868.9688,393.9219 L868.9688,396.6406 Z " fill="#000000"/><text fill="#000000" font-family="sans-serif" font-size="14" lengthAdjust="spacing" textLength="105" x="880" y="395.8467">ContainerEntity</text></g><!--class ScriptEntity--><g id="elem_ScriptEntity"><rect codeLine="73" fill="#F1F1F1" height="32" id="ScriptEntity" rx="2.5" ry="2.5" style="stroke:#181818;stroke-width:0.5;" width="109" x="432" y="559"/><ellipse cx="447" cy="575" fill="#ADD1B2" rx="11" ry="11" style="stroke:#181818;stroke-width:1.0;"/><path d="M449.9688,580.6406 Q449.3906,580.9375 448.75,581.0781 Q448.1094,581.2344 447.4063,581.2344 Q444.9063,581.2344 443.5781,579.5938 Q442.2656,577.9375 442.2656,574.8125 Q442.2656,571.6875 443.5781,570.0313 Q444.9063,568.375 447.4063,568.375 Q448.1094,568.375 448.75,568.5313 Q449.4063,568.6875 449.9688,568.9844 L449.9688,571.7031 Q449.3438,571.125 448.75,570.8594 Q448.1563,570.5781 447.5313,570.5781 Q446.1875,570.5781 445.5,571.6563 Q444.8125,572.7188 444.8125,574.8125 Q444.8125,576.9063 445.5,577.9844 Q446.1875,579.0469 447.5313,579.0469 Q448.1563,579.0469 448.75,578.7813 Q449.3438,578.5 449.9688,577.9219 L449.9688,580.6406 Z " fill="#000000"/><text fill="#000000" font-family="sans-serif" font-size="14" lengthAdjust="spacing" textLength="77" x="461" y="579.8467">ScriptEntity</text></g><!--class Module--><g id="elem_Module"><rect codeLine="83" fill="#F1F1F1" height="32" id="Module" rx="2.5" ry="2.5" style="stroke:#181818;stroke-width:0.5;" width="83" x="445" y="651"/><ellipse cx="460" cy="667" fill="#ADD1B2" rx="11" ry="11" style="stroke:#181818;stroke-width:1.0;"/><path d="M462.9688,672.6406 Q462.3906,672.9375 461.75,673.0781 Q461.1094,673.2344 460.4063,673.2344 Q457.9063,673.2344 456.5781,671.5938 Q455.2656,669.9375 455.2656,666.8125 Q455.2656,663.6875 456.5781,662.0313 Q457.9063,660.375 460.4063,660.375 Q461.1094,660.375 461.75,660.5313 Q462.4063,660.6875 462.9688,660.9844 L462.9688,663.7031 Q462.3438,663.125 461.75,662.8594 Q461.1563,662.5781 460.5313,662.5781 Q459.1875,662.5781 458.5,663.6563 Q457.8125,664.7188 457.8125,666.8125 Q457.8125,668.9063 458.5,669.9844 Q459.1875,671.0469 460.5313,671.0469 Q461.1563,671.0469 461.75,670.7813 Q462.3438,670.5 462.9688,669.9219 L462.9688,672.6406 Z " fill="#000000"/><text fill="#000000" font-family="sans-serif" font-size="14" lengthAdjust="spacing" textLength="51" x="474" y="671.8467">Module</text></g><!--class ImportClause--><g id="elem_ImportClause"><rect codeLine="90" fill="#F1F1F1" height="32" id="ImportClause" rx="2.5" ry="2.5" style="stroke:#181818;stroke-width:0.5;" width="123" x="155" y="375"/><ellipse cx="170" cy="391" fill="#ADD1B2" rx="11" ry="11" style="stroke:#181818;stroke-width:1.0;"/><path d="M172.9688,396.6406 Q172.3906,396.9375 171.75,397.0781 Q171.1094,397.2344 170.4063,397.2344 Q167.9063,397.2344 166.5781,395.5938 Q165.2656,393.9375 165.2656,390.8125 Q165.2656,387.6875 166.5781,386.0313 Q167.9063,384.375 170.4063,384.375 Q171.1094,384.375 171.75,384.5313 Q172.4063,384.6875 172.9688,384.9844 L172.9688,387.7031 Q172.3438,387.125 171.75,386.8594 Q171.1563,386.5781 170.5313,386.5781 Q169.1875,386.5781 168.5,387.6563 Q167.8125,388.7188 167.8125,390.8125 Q167.8125,392.9063 168.5,393.9844 Q169.1875,395.0469 170.5313,395.0469 Q171.1563,395.0469 171.75,394.7813 Q172.3438,394.5 172.9688,393.9219 L172.9688,396.6406 Z " fill="#000000"/><text fill="#000000" font-family="sans-serif" font-size="14" lengthAdjust="spacing" textLength="91" x="184" y="395.8467">ImportClause</text></g><!--class Alias--><g id="elem_Alias"><rect codeLine="103" fill="#F1F1F1" height="32" id="Alias" rx="2.5" ry="2.5" style="stroke:#181818;stroke-width:0.5;" width="63" x="1023" y="375"/><ellipse cx="1038" cy="391" fill="#ADD1B2" rx="11" ry="11" style="stroke:#181818;stroke-width:1.0;"/><path d="M1040.9688,396.6406 Q1040.3906,396.9375 1039.75,397.0781 Q1039.1094,397.2344 1038.4063,397.2344 Q1035.9063,397.2344 1034.5781,395.5938 Q1033.2656,393.9375 1033.2656,390.8125 Q1033.2656,387.6875 1034.5781,386.0313 Q1035.9063,384.375 1038.4063,384.375 Q1039.1094,384.375 1039.75,384.5313 Q1040.4063,384.6875 1040.9688,384.9844 L1040.9688,387.7031 Q1040.3438,387.125 1039.75,386.8594 Q1039.1563,386.5781 1038.5313,386.5781 Q1037.1875,386.5781 1036.5,387.6563 Q1035.8125,388.7188 1035.8125,390.8125 Q1035.8125,392.9063 1036.5,393.9844 Q1037.1875,395.0469 1038.5313,395.0469 Q1039.1563,395.0469 1039.75,394.7813 Q1040.3438,394.5 1040.9688,393.9219 L1040.9688,396.6406 Z " fill="#000000"/><text fill="#000000" font-family="sans-serif" font-size="14" lengthAdjust="spacing" textLength="31" x="1052" y="395.8467">Alias</text></g><!--class NamedEntity--><g id="elem_NamedEntity"><rect codeLine="117" fill="#F1F1F1" height="32" id="NamedEntity" rx="2.5" ry="2.5" style="stroke:#181818;stroke-width:0.5;" width="119" x="927" y="283"/><ellipse cx="942" cy="299" fill="#ADD1B2" rx="11" ry="11" style="stroke:#181818;stroke-width:1.0;"/><path d="M944.9688,304.6406 Q944.3906,304.9375 943.75,305.0781 Q943.1094,305.2344 942.4063,305.2344 Q939.9063,305.2344 938.5781,303.5938 Q937.2656,301.9375 937.2656,298.8125 Q937.2656,295.6875 938.5781,294.0313 Q939.9063,292.375 942.4063,292.375 Q943.1094,292.375 943.75,292.5313 Q944.4063,292.6875 944.9688,292.9844 L944.9688,295.7031 Q944.3438,295.125 943.75,294.8594 Q943.1563,294.5781 942.5313,294.5781 Q941.1875,294.5781 940.5,295.6563 Q939.8125,296.7188 939.8125,298.8125 Q939.8125,300.9063 940.5,301.9844 Q941.1875,303.0469 942.5313,303.0469 Q943.1563,303.0469 943.75,302.7813 Q944.3438,302.5 944.9688,301.9219 L944.9688,304.6406 Z " fill="#000000"/><text fill="#000000" font-family="sans-serif" font-size="14" lengthAdjust="spacing" textLength="87" x="956" y="303.8467">NamedEntity</text></g><!--class Decorator--><g id="elem_Decorator"><rect codeLine="110" fill="#F1F1F1" height="32" id="Decorator" rx="2.5" ry="2.5" style="stroke:#181818;stroke-width:0.5;" width="101" x="1121" y="375"/><ellipse cx="1136" cy="391" fill="#ADD1B2" rx="11" ry="11" style="stroke:#181818;stroke-width:1.0;"/><path d="M1138.9688,396.6406 Q1138.3906,396.9375 1137.75,397.0781 Q1137.1094,397.2344 1136.4063,397.2344 Q1133.9063,397.2344 1132.5781,395.5938 Q1131.2656,393.9375 1131.2656,390.8125 Q1131.2656,387.6875 1132.5781,386.0313 Q1133.9063,384.375 1136.4063,384.375 Q1137.1094,384.375 1137.75,384.5313 Q1138.4063,384.6875 1138.9688,384.9844 L1138.9688,387.7031 Q1138.3438,387.125 1137.75,386.8594 Q1137.1563,386.5781 1136.5313,386.5781 Q1135.1875,386.5781 1134.5,387.6563 Q1133.8125,388.7188 1133.8125,390.8125 Q1133.8125,392.9063 1134.5,393.9844 Q1135.1875,395.0469 1136.5313,395.0469 Q1137.1563,395.0469 1137.75,394.7813 Q1138.3438,394.5 1138.9688,393.9219 L1138.9688,396.6406 Z " fill="#000000"/><text fill="#000000" font-family="sans-serif" font-size="14" lengthAdjust="spacing" textLength="69" x="1150" y="395.8467">Decorator</text></g><!--class Parameter--><g id="elem_Parameter"><rect codeLine="139" fill="#F1F1F1" height="32" id="Parameter" rx="2.5" ry="2.5" style="stroke:#181818;stroke-width:0.5;" width="103" x="1370" y="467"/><ellipse cx="1385" cy="483" fill="#ADD1B2" rx="11" ry="11" style="stroke:#181818;stroke-width:1.0;"/><path d="M1387.9688,488.6406 Q1387.3906,488.9375 1386.75,489.0781 Q1386.1094,489.2344 1385.4063,489.2344 Q1382.9063,489.2344 1381.5781,487.5938 Q1380.2656,485.9375 1380.2656,482.8125 Q1380.2656,479.6875 1381.5781,478.0313 Q1382.9063,476.375 1385.4063,476.375 Q1386.1094,476.375 1386.75,476.5313 Q1387.4063,476.6875 1387.9688,476.9844 L1387.9688,479.7031 Q1387.3438,479.125 1386.75,478.8594 Q1386.1563,478.5781 1385.5313,478.5781 Q1384.1875,478.5781 1383.5,479.6563 Q1382.8125,480.7188 1382.8125,482.8125 Q1382.8125,484.9063 1383.5,485.9844 Q1384.1875,487.0469 1385.5313,487.0469 Q1386.1563,487.0469 1386.75,486.7813 Q1387.3438,486.5 1387.9688,485.9219 L1387.9688,488.6406 Z " fill="#000000"/><text fill="#000000" font-family="sans-serif" font-size="14" lengthAdjust="spacing" textLength="71" x="1399" y="487.8467">Parameter</text></g><!--class StructuralEntity--><g id="elem_StructuralEntity"><rect codeLine="255" fill="#F1F1F1" height="32" id="StructuralEntity" rx="2.5" ry="2.5" style="stroke:#181818;stroke-width:0.5;" width="136" x="1483.5" y="375"/><ellipse cx="1498.5" cy="391" fill="#ADD1B2" rx="11" ry="11" style="stroke:#181818;stroke-width:1.0;"/><path d="M1501.4688,396.6406 Q1500.8906,396.9375 1500.25,397.0781 Q1499.6094,397.2344 1498.9063,397.2344 Q1496.4063,397.2344 1495.0781,395.5938 Q1493.7656,393.9375 1493.7656,390.8125 Q1493.7656,387.6875 1495.0781,386.0313 Q1496.4063,384.375 1498.9063,384.375 Q1499.6094,384.375 1500.25,384.5313 Q1500.9063,384.6875 1501.4688,384.9844 L1501.4688,387.7031 Q1500.8438,387.125 1500.25,386.8594 Q1499.6563,386.5781 1499.0313,386.5781 Q1497.6875,386.5781 1497,387.6563 Q1496.3125,388.7188 1496.3125,390.8125 Q1496.3125,392.9063 1497,393.9844 Q1497.6875,395.0469 1499.0313,395.0469 Q1499.6563,395.0469 1500.25,394.7813 Q1500.8438,394.5 1501.4688,393.9219 L1501.4688,396.6406 Z " fill="#000000"/><text fill="#000000" font-family="sans-serif" font-size="14" lengthAdjust="spacing" textLength="104" x="1512.5" y="395.8467">StructuralEntity</text></g><!--class BehavioralEntity--><g id="elem_BehavioralEntity"><rect codeLine="146" fill="#F1F1F1" height="32" id="BehavioralEntity" rx="2.5" ry="2.5" style="stroke:#181818;stroke-width:0.5;" width="141" x="676" y="467"/><ellipse cx="691" cy="483" fill="#ADD1B2" rx="11" ry="11" style="stroke:#181818;stroke-width:1.0;"/><path d="M693.9688,488.6406 Q693.3906,488.9375 692.75,489.0781 Q692.1094,489.2344 691.4063,489.2344 Q688.9063,489.2344 687.5781,487.5938 Q686.2656,485.9375 686.2656,482.8125 Q686.2656,479.6875 687.5781,478.0313 Q688.9063,476.375 691.4063,476.375 Q692.1094,476.375 692.75,476.5313 Q693.4063,476.6875 693.9688,476.9844 L693.9688,479.7031 Q693.3438,479.125 692.75,478.8594 Q692.1563,478.5781 691.5313,478.5781 Q690.1875,478.5781 689.5,479.6563 Q688.8125,480.7188 688.8125,482.8125 Q688.8125,484.9063 689.5,485.9844 Q690.1875,487.0469 691.5313,487.0469 Q692.1563,487.0469 692.75,486.7813 Q693.3438,486.5 693.9688,485.9219 L693.9688,488.6406 Z " fill="#000000"/><text fill="#000000" font-family="sans-serif" font-size="14" lengthAdjust="spacing" textLength="109" x="705" y="487.8467">BehavioralEntity</text></g><!--class Invocation--><g id="elem_Invocation"><rect codeLine="165" fill="#F1F1F1" height="32" id="Invocation" rx="2.5" ry="2.5" style="stroke:#181818;stroke-width:0.5;" width="102" x="313.5" y="375"/><ellipse cx="328.5" cy="391" fill="#ADD1B2" rx="11" ry="11" style="stroke:#181818;stroke-width:1.0;"/><path d="M331.4688,396.6406 Q330.8906,396.9375 330.25,397.0781 Q329.6094,397.2344 328.9063,397.2344 Q326.4063,397.2344 325.0781,395.5938 Q323.7656,393.9375 323.7656,390.8125 Q323.7656,387.6875 325.0781,386.0313 Q326.4063,384.375 328.9063,384.375 Q329.6094,384.375 330.25,384.5313 Q330.9063,384.6875 331.4688,384.9844 L331.4688,387.7031 Q330.8438,387.125 330.25,386.8594 Q329.6563,386.5781 329.0313,386.5781 Q327.6875,386.5781 327,387.6563 Q326.3125,388.7188 326.3125,390.8125 Q326.3125,392.9063 327,393.9844 Q327.6875,395.0469 329.0313,395.0469 Q329.6563,395.0469 330.25,394.7813 Q330.8438,394.5 331.4688,393.9219 L331.4688,396.6406 Z " fill="#000000"/><text fill="#000000" font-family="sans-serif" font-size="14" lengthAdjust="spacing" textLength="70" x="342.5" y="395.8467">Invocation</text></g><!--class Reference--><g id="elem_Reference"><rect codeLine="181" fill="#F1F1F1" height="32" id="Reference" rx="2.5" ry="2.5" style="stroke:#181818;stroke-width:0.5;" width="104" x="450.5" y="375"/><ellipse cx="465.5" cy="391" fill="#ADD1B2" rx="11" ry="11" style="stroke:#181818;stroke-width:1.0;"/><path d="M468.4688,396.6406 Q467.8906,396.9375 467.25,397.0781 Q466.6094,397.2344 465.9063,397.2344 Q463.4063,397.2344 462.0781,395.5938 Q460.7656,393.9375 460.7656,390.8125 Q460.7656,387.6875 462.0781,386.0313 Q463.4063,384.375 465.9063,384.375 Q466.6094,384.375 467.25,384.5313 Q467.9063,384.6875 468.4688,384.9844 L468.4688,387.7031 Q467.8438,387.125 467.25,386.8594 Q466.6563,386.5781 466.0313,386.5781 Q464.6875,386.5781 464,387.6563 Q463.3125,388.7188 463.3125,390.8125 Q463.3125,392.9063 464,393.9844 Q464.6875,395.0469 466.0313,395.0469 Q466.6563,395.0469 467.25,394.7813 Q467.8438,394.5 468.4688,393.9219 L468.4688,396.6406 Z " fill="#000000"/><text fill="#000000" font-family="sans-serif" font-size="14" lengthAdjust="spacing" textLength="72" x="479.5" y="395.8467">Reference</text></g><!--class Function--><g id="elem_Function"><rect codeLine="191" fill="#F1F1F1" height="32" id="Function" rx="2.5" ry="2.5" style="stroke:#181818;stroke-width:0.5;" width="92" x="576.5" y="559"/><ellipse cx="591.5" cy="575" fill="#ADD1B2" rx="11" ry="11" style="stroke:#181818;stroke-width:1.0;"/><path d="M594.4688,580.6406 Q593.8906,580.9375 593.25,581.0781 Q592.6094,581.2344 591.9063,581.2344 Q589.4063,581.2344 588.0781,579.5938 Q586.7656,577.9375 586.7656,574.8125 Q586.7656,571.6875 588.0781,570.0313 Q589.4063,568.375 591.9063,568.375 Q592.6094,568.375 593.25,568.5313 Q593.9063,568.6875 594.4688,568.9844 L594.4688,571.7031 Q593.8438,571.125 593.25,570.8594 Q592.6563,570.5781 592.0313,570.5781 Q590.6875,570.5781 590,571.6563 Q589.3125,572.7188 589.3125,574.8125 Q589.3125,576.9063 590,577.9844 Q590.6875,579.0469 592.0313,579.0469 Q592.6563,579.0469 593.25,578.7813 Q593.8438,578.5 594.4688,577.9219 L594.4688,580.6406 Z " fill="#000000"/><text fill="#000000" font-family="sans-serif" font-size="14" lengthAdjust="spacing" textLength="60" x="605.5" y="579.8467">Function</text></g><!--class Variable--><g id="elem_Variable"><rect codeLine="195" fill="#F1F1F1" height="32" id="Variable" rx="2.5" ry="2.5" style="stroke:#181818;stroke-width:0.5;" width="86" x="1508.5" y="467"/><ellipse cx="1523.5" cy="483" fill="#ADD1B2" rx="11" ry="11" style="stroke:#181818;stroke-width:1.0;"/><path d="M1526.4688,488.6406 Q1525.8906,488.9375 1525.25,489.0781 Q1524.6094,489.2344 1523.9063,489.2344 Q1521.4063,489.2344 1520.0781,487.5938 Q1518.7656,485.9375 1518.7656,482.8125 Q1518.7656,479.6875 1520.0781,478.0313 Q1521.4063,476.375 1523.9063,476.375 Q1524.6094,476.375 1525.25,476.5313 Q1525.9063,476.6875 1526.4688,476.9844 L1526.4688,479.7031 Q1525.8438,479.125 1525.25,478.8594 Q1524.6563,478.5781 1524.0313,478.5781 Q1522.6875,478.5781 1522,479.6563 Q1521.3125,480.7188 1521.3125,482.8125 Q1521.3125,484.9063 1522,485.9844 Q1522.6875,487.0469 1524.0313,487.0469 Q1524.6563,487.0469 1525.25,486.7813 Q1525.8438,486.5 1526.4688,485.9219 L1526.4688,488.6406 Z " fill="#000000"/><text fill="#000000" font-family="sans-serif" font-size="14" lengthAdjust="spacing" textLength="54" x="1537.5" y="487.8467">Variable</text></g><!--class Type--><g id="elem_Type"><rect codeLine="239" fill="#F1F1F1" height="32" id="Type" rx="2.5" ry="2.5" style="stroke:#181818;stroke-width:0.5;" width="66" x="1059.5" y="467"/><ellipse cx="1074.5" cy="483" fill="#ADD1B2" rx="11" ry="11" style="stroke:#181818;stroke-width:1.0;"/><path d="M1077.4688,488.6406 Q1076.8906,488.9375 1076.25,489.0781 Q1075.6094,489.2344 1074.9063,489.2344 Q1072.4063,489.2344 1071.0781,487.5938 Q1069.7656,485.9375 1069.7656,482.8125 Q1069.7656,479.6875 1071.0781,478.0313 Q1072.4063,476.375 1074.9063,476.375 Q1075.6094,476.375 1076.25,476.5313 Q1076.9063,476.6875 1077.4688,476.9844 L1077.4688,479.7031 Q1076.8438,479.125 1076.25,478.8594 Q1075.6563,478.5781 1075.0313,478.5781 Q1073.6875,478.5781 1073,479.6563 Q1072.3125,480.7188 1072.3125,482.8125 Q1072.3125,484.9063 1073,485.9844 Q1073.6875,487.0469 1075.0313,487.0469 Q1075.6563,487.0469 1076.25,486.7813 Q1076.8438,486.5 1077.4688,485.9219 L1077.4688,488.6406 Z " fill="#000000"/><text fill="#000000" font-family="sans-serif" font-size="14" lengthAdjust="spacing" textLength="34" x="1088.5" y="487.8467">Type</text></g><!--class Access--><g id="elem_Access"><rect codeLine="265" fill="#F1F1F1" height="32" id="Access" rx="2.5" ry="2.5" style="stroke:#181818;stroke-width:0.5;" width="82" x="589.5" y="375"/><ellipse cx="604.5" cy="391" fill="#ADD1B2" rx="11" ry="11" style="stroke:#181818;stroke-width:1.0;"/><path d="M607.4688,396.6406 Q606.8906,396.9375 606.25,397.0781 Q605.6094,397.2344 604.9063,397.2344 Q602.4063,397.2344 601.0781,395.5938 Q599.7656,393.9375 599.7656,390.8125 Q599.7656,387.6875 601.0781,386.0313 Q602.4063,384.375 604.9063,384.375 Q605.6094,384.375 606.25,384.5313 Q606.9063,384.6875 607.4688,384.9844 L607.4688,387.7031 Q606.8438,387.125 606.25,386.8594 Q605.6563,386.5781 605.0313,386.5781 Q603.6875,386.5781 603,387.6563 Q602.3125,388.7188 602.3125,390.8125 Q602.3125,392.9063 603,393.9844 Q603.6875,395.0469 605.0313,395.0469 Q605.6563,395.0469 606.25,394.7813 Q606.8438,394.5 607.4688,393.9219 L607.4688,396.6406 Z " fill="#000000"/><text fill="#000000" font-family="sans-serif" font-size="14" lengthAdjust="spacing" textLength="50" x="618.5" y="395.8467">Access</text></g><!--class CSourceLanguage--><g id="elem_CSourceLanguage"><rect codeLine="278" fill="#F1F1F1" height="32" id="CSourceLanguage" rx="2.5" ry="2.5" style="stroke:#181818;stroke-width:0.5;" width="159" x="7" y="283"/><ellipse cx="22" cy="299" fill="#ADD1B2" rx="11" ry="11" style="stroke:#181818;stroke-width:1.0;"/><path d="M24.9688,304.6406 Q24.3906,304.9375 23.75,305.0781 Q23.1094,305.2344 22.4063,305.2344 Q19.9063,305.2344 18.5781,303.5938 Q17.2656,301.9375 17.2656,298.8125 Q17.2656,295.6875 18.5781,294.0313 Q19.9063,292.375 22.4063,292.375 Q23.1094,292.375 23.75,292.5313 Q24.4063,292.6875 24.9688,292.9844 L24.9688,295.7031 Q24.3438,295.125 23.75,294.8594 Q23.1563,294.5781 22.5313,294.5781 Q21.1875,294.5781 20.5,295.6563 Q19.8125,296.7188 19.8125,298.8125 Q19.8125,300.9063 20.5,301.9844 Q21.1875,303.0469 22.5313,303.0469 Q23.1563,303.0469 23.75,302.7813 Q24.3438,302.5 24.9688,301.9219 L24.9688,304.6406 Z " fill="#000000"/><text fill="#000000" font-family="sans-serif" font-size="14" lengthAdjust="spacing" textLength="127" x="36" y="303.8467">CSourceLanguage</text></g><!--class Field--><g id="elem_Field"><rect codeLine="282" fill="#F1F1F1" height="32" id="Field" rx="2.5" ry="2.5" style="stroke:#181818;stroke-width:0.5;" width="64" x="1629.5" y="467"/><ellipse cx="1644.5" cy="483" fill="#ADD1B2" rx="11" ry="11" style="stroke:#181818;stroke-width:1.0;"/><path d="M1647.4688,488.6406 Q1646.8906,488.9375 1646.25,489.0781 Q1645.6094,489.2344 1644.9063,489.2344 Q1642.4063,489.2344 1641.0781,487.5938 Q1639.7656,485.9375 1639.7656,482.8125 Q1639.7656,479.6875 1641.0781,478.0313 Q1642.4063,476.375 1644.9063,476.375 Q1645.6094,476.375 1646.25,476.5313 Q1646.9063,476.6875 1647.4688,476.9844 L1647.4688,479.7031 Q1646.8438,479.125 1646.25,478.8594 Q1645.6563,478.5781 1645.0313,478.5781 Q1643.6875,478.5781 1643,479.6563 Q1642.3125,480.7188 1642.3125,482.8125 Q1642.3125,484.9063 1643,485.9844 Q1643.6875,487.0469 1645.0313,487.0469 Q1645.6563,487.0469 1646.25,486.7813 Q1646.8438,486.5 1647.4688,485.9219 L1647.4688,488.6406 Z " fill="#000000"/><text fill="#000000" font-family="sans-serif" font-size="14" lengthAdjust="spacing" textLength="32" x="1658.5" y="487.8467">Field</text></g><!--class Inheritance--><g id="elem_Inheritance"><rect codeLine="295" fill="#F1F1F1" height="32" id="Inheritance" rx="2.5" ry="2.5" style="stroke:#181818;stroke-width:0.5;" width="109" x="707" y="375"/><ellipse cx="722" cy="391" fill="#ADD1B2" rx="11" ry="11" style="stroke:#181818;stroke-width:1.0;"/><path d="M724.9688,396.6406 Q724.3906,396.9375 723.75,397.0781 Q723.1094,397.2344 722.4063,397.2344 Q719.9063,397.2344 718.5781,395.5938 Q717.2656,393.9375 717.2656,390.8125 Q717.2656,387.6875 718.5781,386.0313 Q719.9063,384.375 722.4063,384.375 Q723.1094,384.375 723.75,384.5313 Q724.4063,384.6875 724.9688,384.9844 L724.9688,387.7031 Q724.3438,387.125 723.75,386.8594 Q723.1563,386.5781 722.5313,386.5781 Q721.1875,386.5781 720.5,387.6563 Q719.8125,388.7188 719.8125,390.8125 Q719.8125,392.9063 720.5,393.9844 Q721.1875,395.0469 722.5313,395.0469 Q723.1563,395.0469 723.75,394.7813 Q724.3438,394.5 724.9688,393.9219 L724.9688,396.6406 Z " fill="#000000"/><text fill="#000000" font-family="sans-serif" font-size="14" lengthAdjust="spacing" textLength="77" x="736" y="395.8467">Inheritance</text></g><!--class Interface--><g id="elem_Interface"><rect codeLine="305" fill="#F1F1F1" height="32" id="Interface" rx="2.5" ry="2.5" style="stroke:#181818;stroke-width:0.5;" width="92" x="824.5" y="559"/><ellipse cx="839.5" cy="575" fill="#ADD1B2" rx="11" ry="11" style="stroke:#181818;stroke-width:1.0;"/><path d="M842.4688,580.6406 Q841.8906,580.9375 841.25,581.0781 Q840.6094,581.2344 839.9063,581.2344 Q837.4063,581.2344 836.0781,579.5938 Q834.7656,577.9375 834.7656,574.8125 Q834.7656,571.6875 836.0781,570.0313 Q837.4063,568.375 839.9063,568.375 Q840.6094,568.375 841.25,568.5313 Q841.9063,568.6875 842.4688,568.9844 L842.4688,571.7031 Q841.8438,571.125 841.25,570.8594 Q840.6563,570.5781 840.0313,570.5781 Q838.6875,570.5781 838,571.6563 Q837.3125,572.7188 837.3125,574.8125 Q837.3125,576.9063 838,577.9844 Q838.6875,579.0469 840.0313,579.0469 Q840.6563,579.0469 841.25,578.7813 Q841.8438,578.5 842.4688,577.9219 L842.4688,580.6406 Z " fill="#000000"/><text fill="#000000" font-family="sans-serif" font-size="14" lengthAdjust="spacing" textLength="60" x="853.5" y="579.8467">Interface</text></g><!--class Method--><g id="elem_Method"><rect codeLine="324" fill="#F1F1F1" height="32" id="Method" rx="2.5" ry="2.5" style="stroke:#181818;stroke-width:0.5;" width="85" x="704" y="559"/><ellipse cx="719" cy="575" fill="#ADD1B2" rx="11" ry="11" style="stroke:#181818;stroke-width:1.0;"/><path d="M721.9688,580.6406 Q721.3906,580.9375 720.75,581.0781 Q720.1094,581.2344 719.4063,581.2344 Q716.9063,581.2344 715.5781,579.5938 Q714.2656,577.9375 714.2656,574.8125 Q714.2656,571.6875 715.5781,570.0313 Q716.9063,568.375 719.4063,568.375 Q720.1094,568.375 720.75,568.5313 Q721.4063,568.6875 721.9688,568.9844 L721.9688,571.7031 Q721.3438,571.125 720.75,570.8594 Q720.1563,570.5781 719.5313,570.5781 Q718.1875,570.5781 717.5,571.6563 Q716.8125,572.7188 716.8125,574.8125 Q716.8125,576.9063 717.5,577.9844 Q718.1875,579.0469 719.5313,579.0469 Q720.1563,579.0469 720.75,578.7813 Q721.3438,578.5 721.9688,577.9219 L721.9688,580.6406 Z " fill="#000000"/><text fill="#000000" font-family="sans-serif" font-size="14" lengthAdjust="spacing" textLength="53" x="733" y="579.8467">Method</text></g><!--class Class--><g id="elem_Class"><rect codeLine="349" fill="#F1F1F1" height="32" id="Class" rx="2.5" ry="2.5" style="stroke:#181818;stroke-width:0.5;" width="69" x="952" y="559"/><ellipse cx="967" cy="575" fill="#ADD1B2" rx="11" ry="11" style="stroke:#181818;stroke-width:1.0;"/><path d="M969.9688,580.6406 Q969.3906,580.9375 968.75,581.0781 Q968.1094,581.2344 967.4063,581.2344 Q964.9063,581.2344 963.5781,579.5938 Q962.2656,577.9375 962.2656,574.8125 Q962.2656,571.6875 963.5781,570.0313 Q964.9063,568.375 967.4063,568.375 Q968.1094,568.375 968.75,568.5313 Q969.4063,568.6875 969.9688,568.9844 L969.9688,571.7031 Q969.3438,571.125 968.75,570.8594 Q968.1563,570.5781 967.5313,570.5781 Q966.1875,570.5781 965.5,571.6563 Q964.8125,572.7188 964.8125,574.8125 Q964.8125,576.9063 965.5,577.9844 Q966.1875,579.0469 967.5313,579.0469 Q968.1563,579.0469 968.75,578.7813 Q969.3438,578.5 969.9688,577.9219 L969.9688,580.6406 Z " fill="#000000"/><text fill="#000000" font-family="sans-serif" font-size="14" lengthAdjust="spacing" textLength="37" x="981" y="579.8467">Class</text></g><!--class CustomSourceLanguage--><g id="elem_CustomSourceLanguage"><rect codeLine="371" fill="#F1F1F1" height="32" id="CustomSourceLanguage" rx="2.5" ry="2.5" style="stroke:#181818;stroke-width:0.5;" width="203" x="201" y="283"/><ellipse cx="216" cy="299" fill="#ADD1B2" rx="11" ry="11" style="stroke:#181818;stroke-width:1.0;"/><path d="M218.9688,304.6406 Q218.3906,304.9375 217.75,305.0781 Q217.1094,305.2344 216.4063,305.2344 Q213.9063,305.2344 212.5781,303.5938 Q211.2656,301.9375 211.2656,298.8125 Q211.2656,295.6875 212.5781,294.0313 Q213.9063,292.375 216.4063,292.375 Q217.1094,292.375 217.75,292.5313 Q218.4063,292.6875 218.9688,292.9844 L218.9688,295.7031 Q218.3438,295.125 217.75,294.8594 Q217.1563,294.5781 216.5313,294.5781 Q215.1875,294.5781 214.5,295.6563 Q213.8125,296.7188 213.8125,298.8125 Q213.8125,300.9063 214.5,301.9844 Q215.1875,303.0469 216.5313,303.0469 Q217.1563,303.0469 217.75,302.7813 Q218.3438,302.5 218.9688,301.9219 L218.9688,304.6406 Z " fill="#000000"/><text fill="#000000" font-family="sans-serif" font-size="14" lengthAdjust="spacing" textLength="171" x="230" y="303.8467">CustomSourceLanguage</text></g><!--class Enum--><g id="elem_Enum"><rect codeLine="378" fill="#F1F1F1" height="32" id="Enum" rx="2.5" ry="2.5" style="stroke:#181818;stroke-width:0.5;" width="72" x="1056.5" y="559"/><ellipse cx="1071.5" cy="575" fill="#ADD1B2" rx="11" ry="11" style="stroke:#181818;stroke-width:1.0;"/><path d="M1074.4688,580.6406 Q1073.8906,580.9375 1073.25,581.0781 Q1072.6094,581.2344 1071.9063,581.2344 Q1069.4063,581.2344 1068.0781,579.5938 Q1066.7656,577.9375 1066.7656,574.8125 Q1066.7656,571.6875 1068.0781,570.0313 Q1069.4063,568.375 1071.9063,568.375 Q1072.6094,568.375 1073.25,568.5313 Q1073.9063,568.6875 1074.4688,568.9844 L1074.4688,571.7031 Q1073.8438,571.125 1073.25,570.8594 Q1072.6563,570.5781 1072.0313,570.5781 Q1070.6875,570.5781 1070,571.6563 Q1069.3125,572.7188 1069.3125,574.8125 Q1069.3125,576.9063 1070,577.9844 Q1070.6875,579.0469 1072.0313,579.0469 Q1072.6563,579.0469 1073.25,578.7813 Q1073.8438,578.5 1074.4688,577.9219 L1074.4688,580.6406 Z " fill="#000000"/><text fill="#000000" font-family="sans-serif" font-size="14" lengthAdjust="spacing" textLength="40" x="1085.5" y="579.8467">Enum</text></g><!--class EnumValue--><g id="elem_EnumValue"><rect codeLine="385" fill="#F1F1F1" height="32" id="EnumValue" rx="2.5" ry="2.5" style="stroke:#181818;stroke-width:0.5;" width="110" x="1728.5" y="467"/><ellipse cx="1743.5" cy="483" fill="#ADD1B2" rx="11" ry="11" style="stroke:#181818;stroke-width:1.0;"/><path d="M1746.4688,488.6406 Q1745.8906,488.9375 1745.25,489.0781 Q1744.6094,489.2344 1743.9063,489.2344 Q1741.4063,489.2344 1740.0781,487.5938 Q1738.7656,485.9375 1738.7656,482.8125 Q1738.7656,479.6875 1740.0781,478.0313 Q1741.4063,476.375 1743.9063,476.375 Q1744.6094,476.375 1745.25,476.5313 Q1745.9063,476.6875 1746.4688,476.9844 L1746.4688,479.7031 Q1745.8438,479.125 1745.25,478.8594 Q1744.6563,478.5781 1744.0313,478.5781 Q1742.6875,478.5781 1742,479.6563 Q1741.3125,480.7188 1741.3125,482.8125 Q1741.3125,484.9063 1742,485.9844 Q1742.6875,487.0469 1744.0313,487.0469 Q1744.6563,487.0469 1745.25,486.7813 Q1745.8438,486.5 1746.4688,485.9219 L1746.4688,488.6406 Z " fill="#000000"/><text fill="#000000" font-family="sans-serif" font-size="14" lengthAdjust="spacing" textLength="78" x="1757.5" y="487.8467">EnumValue</text></g><!--class ImplicitVariable--><g id="elem_ImplicitVariable"><rect codeLine="392" fill="#F1F1F1" height="32" id="ImplicitVariable" rx="2.5" ry="2.5" style="stroke:#181818;stroke-width:0.5;" width="133" x="1695" y="559"/><ellipse cx="1710" cy="575" fill="#ADD1B2" rx="11" ry="11" style="stroke:#181818;stroke-width:1.0;"/><path d="M1712.9688,580.6406 Q1712.3906,580.9375 1711.75,581.0781 Q1711.1094,581.2344 1710.4063,581.2344 Q1707.9063,581.2344 1706.5781,579.5938 Q1705.2656,577.9375 1705.2656,574.8125 Q1705.2656,571.6875 1706.5781,570.0313 Q1707.9063,568.375 1710.4063,568.375 Q1711.1094,568.375 1711.75,568.5313 Q1712.4063,568.6875 1712.9688,568.9844 L1712.9688,571.7031 Q1712.3438,571.125 1711.75,570.8594 Q1711.1563,570.5781 1710.5313,570.5781 Q1709.1875,570.5781 1708.5,571.6563 Q1707.8125,572.7188 1707.8125,574.8125 Q1707.8125,576.9063 1708.5,577.9844 Q1709.1875,579.0469 1710.5313,579.0469 Q1711.1563,579.0469 1711.75,578.7813 Q1712.3438,578.5 1712.9688,577.9219 L1712.9688,580.6406 Z " fill="#000000"/><text fill="#000000" font-family="sans-serif" font-size="14" lengthAdjust="spacing" textLength="101" x="1724" y="579.8467">ImplicitVariable</text></g><!--class IndexedFileAnchor--><g id="elem_IndexedFileAnchor"><rect codeLine="396" fill="#F1F1F1" height="32" id="IndexedFileAnchor" rx="2.5" ry="2.5" style="stroke:#181818;stroke-width:0.5;" width="159" x="1081" y="283"/><ellipse cx="1096" cy="299" fill="#ADD1B2" rx="11" ry="11" style="stroke:#181818;stroke-width:1.0;"/><path d="M1098.9688,304.6406 Q1098.3906,304.9375 1097.75,305.0781 Q1097.1094,305.2344 1096.4063,305.2344 Q1093.9063,305.2344 1092.5781,303.5938 Q1091.2656,301.9375 1091.2656,298.8125 Q1091.2656,295.6875 1092.5781,294.0313 Q1093.9063,292.375 1096.4063,292.375 Q1097.1094,292.375 1097.75,292.5313 Q1098.4063,292.6875 1098.9688,292.9844 L1098.9688,295.7031 Q1098.3438,295.125 1097.75,294.8594 Q1097.1563,294.5781 1096.5313,294.5781 Q1095.1875,294.5781 1094.5,295.6563 Q1093.8125,296.7188 1093.8125,298.8125 Q1093.8125,300.9063 1094.5,301.9844 Q1095.1875,303.0469 1096.5313,303.0469 Q1097.1563,303.0469 1097.75,302.7813 Q1098.3438,302.5 1098.9688,301.9219 L1098.9688,304.6406 Z " fill="#000000"/><text fill="#000000" font-family="sans-serif" font-size="14" lengthAdjust="spacing" textLength="127" x="1110" y="303.8467">IndexedFileAnchor</text></g><!--class ParameterizableInterface--><g id="elem_ParameterizableInterface"><rect codeLine="409" fill="#F1F1F1" height="32" id="ParameterizableInterface" rx="2.5" ry="2.5" style="stroke:#181818;stroke-width:0.5;" width="203" x="713" y="651"/><ellipse cx="728" cy="667" fill="#ADD1B2" rx="11" ry="11" style="stroke:#181818;stroke-width:1.0;"/><path d="M730.9688,672.6406 Q730.3906,672.9375 729.75,673.0781 Q729.1094,673.2344 728.4063,673.2344 Q725.9063,673.2344 724.5781,671.5938 Q723.2656,669.9375 723.2656,666.8125 Q723.2656,663.6875 724.5781,662.0313 Q725.9063,660.375 728.4063,660.375 Q729.1094,660.375 729.75,660.5313 Q730.4063,660.6875 730.9688,660.9844 L730.9688,663.7031 Q730.3438,663.125 729.75,662.8594 Q729.1563,662.5781 728.5313,662.5781 Q727.1875,662.5781 726.5,663.6563 Q725.8125,664.7188 725.8125,666.8125 Q725.8125,668.9063 726.5,669.9844 Q727.1875,671.0469 728.5313,671.0469 Q729.1563,671.0469 729.75,670.7813 Q730.3438,670.5 730.9688,669.9219 L730.9688,672.6406 Z " fill="#000000"/><text fill="#000000" font-family="sans-serif" font-size="14" lengthAdjust="spacing" textLength="171" x="742" y="671.8467">ParameterizableInterface</text></g><!--class ParameterizedType--><g id="elem_ParameterizedType"><rect codeLine="419" fill="#F1F1F1" height="32" id="ParameterizedType" rx="2.5" ry="2.5" style="stroke:#181818;stroke-width:0.5;" width="166" x="1163.5" y="559"/><ellipse cx="1178.5" cy="575" fill="#ADD1B2" rx="11" ry="11" style="stroke:#181818;stroke-width:1.0;"/><path d="M1181.4688,580.6406 Q1180.8906,580.9375 1180.25,581.0781 Q1179.6094,581.2344 1178.9063,581.2344 Q1176.4063,581.2344 1175.0781,579.5938 Q1173.7656,577.9375 1173.7656,574.8125 Q1173.7656,571.6875 1175.0781,570.0313 Q1176.4063,568.375 1178.9063,568.375 Q1179.6094,568.375 1180.25,568.5313 Q1180.9063,568.6875 1181.4688,568.9844 L1181.4688,571.7031 Q1180.8438,571.125 1180.25,570.8594 Q1179.6563,570.5781 1179.0313,570.5781 Q1177.6875,570.5781 1177,571.6563 Q1176.3125,572.7188 1176.3125,574.8125 Q1176.3125,576.9063 1177,577.9844 Q1177.6875,579.0469 1179.0313,579.0469 Q1179.6563,579.0469 1180.25,578.7813 Q1180.8438,578.5 1181.4688,577.9219 L1181.4688,580.6406 Z " fill="#000000"/><text fill="#000000" font-family="sans-serif" font-size="14" lengthAdjust="spacing" textLength="134" x="1192.5" y="579.8467">ParameterizedType</text></g><!--class ParameterizableClass--><g id="elem_ParameterizableClass"><rect codeLine="429" fill="#F1F1F1" height="32" id="ParameterizableClass" rx="2.5" ry="2.5" style="stroke:#181818;stroke-width:0.5;" width="180" x="951.5" y="651"/><ellipse cx="966.5" cy="667" fill="#ADD1B2" rx="11" ry="11" style="stroke:#181818;stroke-width:1.0;"/><path d="M969.4688,672.6406 Q968.8906,672.9375 968.25,673.0781 Q967.6094,673.2344 966.9063,673.2344 Q964.4063,673.2344 963.0781,671.5938 Q961.7656,669.9375 961.7656,666.8125 Q961.7656,663.6875 963.0781,662.0313 Q964.4063,660.375 966.9063,660.375 Q967.6094,660.375 968.25,660.5313 Q968.9063,660.6875 969.4688,660.9844 L969.4688,663.7031 Q968.8438,663.125 968.25,662.8594 Q967.6563,662.5781 967.0313,662.5781 Q965.6875,662.5781 965,663.6563 Q964.3125,664.7188 964.3125,666.8125 Q964.3125,668.9063 965,669.9844 Q965.6875,671.0469 967.0313,671.0469 Q967.6563,671.0469 968.25,670.7813 Q968.8438,670.5 969.4688,669.9219 L969.4688,672.6406 Z " fill="#000000"/><text fill="#000000" font-family="sans-serif" font-size="14" lengthAdjust="spacing" textLength="148" x="980.5" y="671.8467">ParameterizableClass</text></g><!--class ParameterType--><g id="elem_ParameterType"><rect codeLine="439" fill="#F1F1F1" height="32" id="ParameterType" rx="2.5" ry="2.5" style="stroke:#181818;stroke-width:0.5;" width="137" x="1365" y="559"/><ellipse cx="1380" cy="575" fill="#ADD1B2" rx="11" ry="11" style="stroke:#181818;stroke-width:1.0;"/><path d="M1382.9688,580.6406 Q1382.3906,580.9375 1381.75,581.0781 Q1381.1094,581.2344 1380.4063,581.2344 Q1377.9063,581.2344 1376.5781,579.5938 Q1375.2656,577.9375 1375.2656,574.8125 Q1375.2656,571.6875 1376.5781,570.0313 Q1377.9063,568.375 1380.4063,568.375 Q1381.1094,568.375 1381.75,568.5313 Q1382.4063,568.6875 1382.9688,568.9844 L1382.9688,571.7031 Q1382.3438,571.125 1381.75,570.8594 Q1381.1563,570.5781 1380.5313,570.5781 Q1379.1875,570.5781 1378.5,571.6563 Q1377.8125,572.7188 1377.8125,574.8125 Q1377.8125,576.9063 1378.5,577.9844 Q1379.1875,579.0469 1380.5313,579.0469 Q1381.1563,579.0469 1381.75,578.7813 Q1382.3438,578.5 1382.9688,577.9219 L1382.9688,580.6406 Z " fill="#000000"/><text fill="#000000" font-family="sans-serif" font-size="14" lengthAdjust="spacing" textLength="105" x="1394" y="579.8467">ParameterType</text></g><!--class PrimitiveType--><g id="elem_PrimitiveType"><rect codeLine="446" fill="#F1F1F1" height="32" id="PrimitiveType" rx="2.5" ry="2.5" style="stroke:#181818;stroke-width:0.5;" width="123" x="1537" y="559"/><ellipse cx="1552" cy="575" fill="#ADD1B2" rx="11" ry="11" style="stroke:#181818;stroke-width:1.0;"/><path d="M1554.9688,580.6406 Q1554.3906,580.9375 1553.75,581.0781 Q1553.1094,581.2344 1552.4063,581.2344 Q1549.9063,581.2344 1548.5781,579.5938 Q1547.2656,577.9375 1547.2656,574.8125 Q1547.2656,571.6875 1548.5781,570.0313 Q1549.9063,568.375 1552.4063,568.375 Q1553.1094,568.375 1553.75,568.5313 Q1554.4063,568.6875 1554.9688,568.9844 L1554.9688,571.7031 Q1554.3438,571.125 1553.75,570.8594 Q1553.1563,570.5781 1552.5313,570.5781 Q1551.1875,570.5781 1550.5,571.6563 Q1549.8125,572.7188 1549.8125,574.8125 Q1549.8125,576.9063 1550.5,577.9844 Q1551.1875,579.0469 1552.5313,579.0469 Q1553.1563,579.0469 1553.75,578.7813 Q1554.3438,578.5 1554.9688,577.9219 L1554.9688,580.6406 Z " fill="#000000"/><text fill="#000000" font-family="sans-serif" font-size="14" lengthAdjust="spacing" textLength="91" x="1566" y="579.8467">PrimitiveType</text></g><!--class TextAnchor--><g id="elem_TextAnchor"><rect codeLine="450" fill="#F1F1F1" height="32" id="TextAnchor" rx="2.5" ry="2.5" style="stroke:#181818;stroke-width:0.5;" width="111" x="1275" y="283"/><ellipse cx="1290" cy="299" fill="#ADD1B2" rx="11" ry="11" style="stroke:#181818;stroke-width:1.0;"/><path d="M1292.9688,304.6406 Q1292.3906,304.9375 1291.75,305.0781 Q1291.1094,305.2344 1290.4063,305.2344 Q1287.9063,305.2344 1286.5781,303.5938 Q1285.2656,301.9375 1285.2656,298.8125 Q1285.2656,295.6875 1286.5781,294.0313 Q1287.9063,292.375 1290.4063,292.375 Q1291.1094,292.375 1291.75,292.5313 Q1292.4063,292.6875 1292.9688,292.9844 L1292.9688,295.7031 Q1292.3438,295.125 1291.75,294.8594 Q1291.1563,294.5781 1290.5313,294.5781 Q1289.1875,294.5781 1288.5,295.6563 Q1287.8125,296.7188 1287.8125,298.8125 Q1287.8125,300.9063 1288.5,301.9844 Q1289.1875,303.0469 1290.5313,303.0469 Q1291.1563,303.0469 1291.75,302.7813 Q1292.3438,302.5 1292.9688,301.9219 L1292.9688,304.6406 Z " fill="#000000"/><text fill="#000000" font-family="sans-serif" font-size="14" lengthAdjust="spacing" textLength="79" x="1304" y="303.8467">TextAnchor</text></g><!--class FamixRepository--><g id="elem_FamixRepository"><rect codeLine="463" fill="#F1F1F1" height="32" id="FamixRepository" rx="2.5" ry="2.5" style="stroke:#181818;stroke-width:0.5;" width="145" x="747" y="7"/><ellipse cx="762" cy="23" fill="#ADD1B2" rx="11" ry="11" style="stroke:#181818;stroke-width:1.0;"/><path d="M764.9688,28.6406 Q764.3906,28.9375 763.75,29.0781 Q763.1094,29.2344 762.4063,29.2344 Q759.9063,29.2344 758.5781,27.5938 Q757.2656,25.9375 757.2656,22.8125 Q757.2656,19.6875 758.5781,18.0313 Q759.9063,16.375 762.4063,16.375 Q763.1094,16.375 763.75,16.5313 Q764.4063,16.6875 764.9688,16.9844 L764.9688,19.7031 Q764.3438,19.125 763.75,18.8594 Q763.1563,18.5781 762.5313,18.5781 Q761.1875,18.5781 760.5,19.6563 Q759.8125,20.7188 759.8125,22.8125 Q759.8125,24.9063 760.5,25.9844 Q761.1875,27.0469 762.5313,27.0469 Q763.1563,27.0469 763.75,26.7813 Q764.3438,26.5 764.9688,25.9219 L764.9688,28.6406 Z " fill="#000000"/><text fill="#000000" font-family="sans-serif" font-size="14" lengthAdjust="spacing" textLength="113" x="776" y="27.8467">FamixRepository</text></g><!--class FamixJSONExporter--><g id="elem_FamixJSONExporter"><rect codeLine="490" fill="#F1F1F1" height="32" id="FamixJSONExporter" rx="2.5" ry="2.5" style="stroke:#181818;stroke-width:0.5;" width="162" x="927.5" y="7"/><ellipse cx="942.5" cy="23" fill="#ADD1B2" rx="11" ry="11" style="stroke:#181818;stroke-width:1.0;"/><path d="M945.4688,28.6406 Q944.8906,28.9375 944.25,29.0781 Q943.6094,29.2344 942.9063,29.2344 Q940.4063,29.2344 939.0781,27.5938 Q937.7656,25.9375 937.7656,22.8125 Q937.7656,19.6875 939.0781,18.0313 Q940.4063,16.375 942.9063,16.375 Q943.6094,16.375 944.25,16.5313 Q944.9063,16.6875 945.4688,16.9844 L945.4688,19.7031 Q944.8438,19.125 944.25,18.8594 Q943.6563,18.5781 943.0313,18.5781 Q941.6875,18.5781 941,19.6563 Q940.3125,20.7188 940.3125,22.8125 Q940.3125,24.9063 941,25.9844 Q941.6875,27.0469 943.0313,27.0469 Q943.6563,27.0469 944.25,26.7813 Q944.8438,26.5 945.4688,25.9219 L945.4688,28.6406 Z " fill="#000000"/><text fill="#000000" font-family="sans-serif" font-size="14" lengthAdjust="spacing" textLength="130" x="956.5" y="27.8467">FamixJSONExporter</text></g><!--reverse link FamixBaseElement to Entity--><g id="link_FamixBaseElement_Entity"><path d="M630.5,59.61 C630.5,73.31 630.5,88.22 630.5,98.96 " fill="none" id="FamixBaseElement-backto-Entity" style="stroke:#181818;stroke-width:1.0;"/><polygon fill="none" points="623.5,59.27,630.5,39.27,637.5,59.27,623.5,59.27" style="stroke:#181818;stroke-width:1.0;"/></g><!--reverse link Entity to SourceLanguage--><g id="link_Entity_SourceLanguage"><path d="M576,130.95 C515.44,147.57 418.2,174.25 357.46,190.92 " fill="none" id="Entity-backto-SourceLanguage" style="stroke:#181818;stroke-width:1.0;"/><polygon fill="none" points="574.26,124.17,595.4,125.63,577.96,137.67,574.26,124.17" style="stroke:#181818;stroke-width:1.0;"/></g><!--reverse link SourcedEntity to Comment--><g id="link_SourcedEntity_Comment"><path d="M589.73,234.02 C564.9,249.87 534.04,269.57 513.18,282.89 " fill="none" id="SourcedEntity-backto-Comment" style="stroke:#181818;stroke-width:1.0;"/><polygon fill="none" points="586.28,227.92,606.9,223.06,593.81,239.73,586.28,227.92" style="stroke:#181818;stroke-width:1.0;"/></g><!--reverse link Entity to SourceAnchor--><g id="link_Entity_SourceAnchor"><path d="M685.56,125.35 C784.08,142.08 990.07,177.06 1095.42,194.95 " fill="none" id="Entity-backto-SourceAnchor" style="stroke:#181818;stroke-width:1.0;"/><polygon fill="none" points="684.23,132.22,665.69,121.97,686.57,118.42,684.23,132.22" style="stroke:#181818;stroke-width:1.0;"/></g><!--reverse link Entity to SourcedEntity--><g id="link_Entity_SourcedEntity"><path d="M630.5,151.61 C630.5,165.31 630.5,180.22 630.5,190.96 " fill="none" id="Entity-backto-SourcedEntity" style="stroke:#181818;stroke-width:1.0;"/><polygon fill="none" points="623.5,151.27,630.5,131.27,637.5,151.27,623.5,151.27" style="stroke:#181818;stroke-width:1.0;"/></g><!--reverse link SourcedEntity to Association--><g id="link_SourcedEntity_Association"><path d="M630.5,243.61 C630.5,257.31 630.5,272.22 630.5,282.96 " fill="none" id="SourcedEntity-backto-Association" style="stroke:#181818;stroke-width:1.0;"/><polygon fill="none" points="623.5,243.27,630.5,223.27,637.5,243.27,623.5,243.27" style="stroke:#181818;stroke-width:1.0;"/></g><!--reverse link ScopingEntity to Namespace--><g id="link_ScopingEntity_Namespace"><path d="M444.75,509.56 C418.74,525.49 386.15,545.44 364.18,558.89 " fill="none" id="ScopingEntity-backto-Namespace" style="stroke:#181818;stroke-width:1.0;"/><polygon fill="none" points="441.18,503.54,461.9,499.06,448.49,515.48,441.18,503.54" style="stroke:#181818;stroke-width:1.0;"/></g><!--reverse link ContainerEntity to ScopingEntity--><g id="link_ContainerEntity_ScopingEntity"><path d="M831.31,410.33 C747.56,427.74 623.75,453.47 549.51,468.9 " fill="none" id="ContainerEntity-backto-ScopingEntity" style="stroke:#181818;stroke-width:1.0;"/><polygon fill="none" points="829.88,403.48,850.89,406.26,832.73,417.18,829.88,403.48" style="stroke:#181818;stroke-width:1.0;"/></g><!--reverse link ScopingEntity to ScriptEntity--><g id="link_ScopingEntity_ScriptEntity"><path d="M486.5,519.61 C486.5,533.31 486.5,548.22 486.5,558.96 " fill="none" id="ScopingEntity-backto-ScriptEntity" style="stroke:#181818;stroke-width:1.0;"/><polygon fill="none" points="479.5,519.27,486.5,499.27,493.5,519.27,479.5,519.27" style="stroke:#181818;stroke-width:1.0;"/></g><!--reverse link ScriptEntity to Module--><g id="link_ScriptEntity_Module"><path d="M486.5,611.61 C486.5,625.31 486.5,640.22 486.5,650.96 " fill="none" id="ScriptEntity-backto-Module" style="stroke:#181818;stroke-width:1.0;"/><polygon fill="none" points="479.5,611.27,486.5,591.27,493.5,611.27,479.5,611.27" style="stroke:#181818;stroke-width:1.0;"/></g><!--reverse link Association to ImportClause--><g id="link_Association_ImportClause"><path d="M554.98,316.42 C475.53,333.69 351.99,360.55 278.18,376.59 " fill="none" id="Association-backto-ImportClause" style="stroke:#181818;stroke-width:1.0;"/><polygon fill="none" points="553.64,309.55,574.67,312.14,556.61,323.23,553.64,309.55" style="stroke:#181818;stroke-width:1.0;"/></g><!--reverse link NamedEntity to Alias--><g id="link_NamedEntity_Alias"><path d="M1010.45,331.69 C1021.56,346.4 1034.24,363.18 1043.14,374.96 " fill="none" id="NamedEntity-backto-Alias" style="stroke:#181818;stroke-width:1.0;"/><polygon fill="none" points="1004.51,335.44,998.04,315.27,1015.68,327,1004.51,335.44" style="stroke:#181818;stroke-width:1.0;"/></g><!--reverse link NamedEntity to Decorator--><g id="link_NamedEntity_Decorator"><path d="M1035.75,323.96 C1068.99,340.13 1111.85,360.98 1140.43,374.89 " fill="none" id="NamedEntity-backto-Decorator" style="stroke:#181818;stroke-width:1.0;"/><polygon fill="none" points="1032.39,330.11,1017.46,315.06,1038.51,317.52,1032.39,330.11" style="stroke:#181818;stroke-width:1.0;"/></g><!--reverse link SourcedEntity to NamedEntity--><g id="link_SourcedEntity_NamedEntity"><path d="M709.57,227.99 C775.3,244.61 867.41,267.89 927.02,282.96 " fill="none" id="SourcedEntity-backto-NamedEntity" style="stroke:#181818;stroke-width:1.0;"/><polygon fill="none" points="707.76,234.75,690.09,223.06,711.19,221.18,707.76,234.75" style="stroke:#181818;stroke-width:1.0;"/></g><!--reverse link StructuralEntity to Parameter--><g id="link_StructuralEntity_Parameter"><path d="M1513.24,418.49 C1490.46,434.26 1462.38,453.7 1443.33,466.89 " fill="none" id="StructuralEntity-backto-Parameter" style="stroke:#181818;stroke-width:1.0;"/><polygon fill="none" points="1509.31,412.69,1529.74,407.06,1517.28,424.2,1509.31,412.69" style="stroke:#181818;stroke-width:1.0;"/></g><!--reverse link ContainerEntity to BehavioralEntity--><g id="link_ContainerEntity_BehavioralEntity"><path d="M872.57,416.41 C841.61,432.52 802.03,453.11 775.55,466.89 " fill="none" id="ContainerEntity-backto-BehavioralEntity" style="stroke:#181818;stroke-width:1.0;"/><polygon fill="none" points="869.57,410.08,890.54,407.06,876.03,422.5,869.57,410.08" style="stroke:#181818;stroke-width:1.0;"/></g><!--reverse link Association to Invocation--><g id="link_Association_Invocation"><path d="M566.95,321.5 C518.28,337.97 452.37,360.27 409.17,374.89 " fill="none" id="Association-backto-Invocation" style="stroke:#181818;stroke-width:1.0;"/><polygon fill="none" points="564.79,314.84,585.98,315.06,569.28,328.1,564.79,314.84" style="stroke:#181818;stroke-width:1.0;"/></g><!--reverse link Association to Reference--><g id="link_Association_Reference"><path d="M592.5,326.72 C570.13,342.45 542.66,361.76 523.99,374.89 " fill="none" id="Association-backto-Reference" style="stroke:#181818;stroke-width:1.0;"/><polygon fill="none" points="588.69,320.84,609.08,315.06,596.74,332.29,588.69,320.84" style="stroke:#181818;stroke-width:1.0;"/></g><!--reverse link BehavioralEntity to Function--><g id="link_BehavioralEntity_Function"><path d="M709.36,510.95 C687.75,526.64 661.32,545.83 643.32,558.89 " fill="none" id="BehavioralEntity-backto-Function" style="stroke:#181818;stroke-width:1.0;"/><polygon fill="none" points="705.45,505.15,725.75,499.06,713.67,516.48,705.45,505.15" style="stroke:#181818;stroke-width:1.0;"/></g><!--reverse link StructuralEntity to Variable--><g id="link_StructuralEntity_Variable"><path d="M1551.5,427.61 C1551.5,441.31 1551.5,456.22 1551.5,466.96 " fill="none" id="StructuralEntity-backto-Variable" style="stroke:#181818;stroke-width:1.0;"/><polygon fill="none" points="1544.5,427.27,1551.5,407.27,1558.5,427.27,1544.5,427.27" style="stroke:#181818;stroke-width:1.0;"/></g><!--reverse link NamedEntity to ContainerEntity--><g id="link_NamedEntity_ContainerEntity"><path d="M962.91,331.69 C951.96,346.4 939.46,363.18 930.7,374.96 " fill="none" id="NamedEntity-backto-ContainerEntity" style="stroke:#181818;stroke-width:1.0;"/><polygon fill="none" points="957.58,327.13,975.13,315.27,968.81,335.49,957.58,327.13" style="stroke:#181818;stroke-width:1.0;"/></g><!--reverse link ContainerEntity to Type--><g id="link_ContainerEntity_Type"><path d="M966.43,416.41 C997.39,432.52 1036.97,453.11 1063.45,466.89 " fill="none" id="ContainerEntity-backto-Type" style="stroke:#181818;stroke-width:1.0;"/><polygon fill="none" points="962.97,422.5,948.46,407.06,969.43,410.08,962.97,422.5" style="stroke:#181818;stroke-width:1.0;"/></g><!--reverse link NamedEntity to StructuralEntity--><g id="link_NamedEntity_StructuralEntity"><path d="M1066.23,315.35 C1226.94,343.09 1392.82,367.46 1483.47,380.42 " fill="none" id="NamedEntity-backto-StructuralEntity" style="stroke:#181818;stroke-width:1.0;"/><polygon fill="none" points="1064.66,322.18,1046.15,311.86,1067.05,308.39,1064.66,322.18" style="stroke:#181818;stroke-width:1.0;"/></g><!--reverse link Association to Access--><g id="link_Association_Access"><path d="M630.5,335.61 C630.5,349.31 630.5,364.22 630.5,374.96 " fill="none" id="Association-backto-Access" style="stroke:#181818;stroke-width:1.0;"/><polygon fill="none" points="623.5,335.27,630.5,315.27,637.5,335.27,623.5,335.27" style="stroke:#181818;stroke-width:1.0;"/></g><!--reverse link SourceLanguage to CSourceLanguage--><g id="link_SourceLanguage_CSourceLanguage"><path d="M247.7,230.83 C208.54,247.15 156.92,268.66 122.77,282.89 " fill="none" id="SourceLanguage-backto-CSourceLanguage" style="stroke:#181818;stroke-width:1.0;"/><polygon fill="none" points="245.19,224.29,266.35,223.06,250.58,237.22,245.19,224.29" style="stroke:#181818;stroke-width:1.0;"/></g><!--reverse link StructuralEntity to Field--><g id="link_StructuralEntity_Field"><path d="M1585.85,420.1 C1604.78,435.6 1627.54,454.21 1643.12,466.96 " fill="none" id="StructuralEntity-backto-Field" style="stroke:#181818;stroke-width:1.0;"/><polygon fill="none" points="1581.21,425.35,1570.16,407.27,1590.07,414.51,1581.21,425.35" style="stroke:#181818;stroke-width:1.0;"/></g><!--reverse link Association to Inheritance--><g id="link_Association_Inheritance"><path d="M669.05,326.49 C692.01,342.26 720.3,361.7 739.5,374.89 " fill="none" id="Association-backto-Inheritance" style="stroke:#181818;stroke-width:1.0;"/><polygon fill="none" points="664.95,332.16,652.43,315.06,672.87,320.62,664.95,332.16" style="stroke:#181818;stroke-width:1.0;"/></g><!--reverse link Type to Interface--><g id="link_Type_Interface"><path d="M1040.61,505.04 C999.85,521.56 944.07,544.17 907.67,558.93 " fill="none" id="Type-backto-Interface" style="stroke:#181818;stroke-width:1.0;"/><polygon fill="none" points="1038.1,498.5,1059.26,497.47,1043.36,511.48,1038.1,498.5" style="stroke:#181818;stroke-width:1.0;"/></g><!--reverse link BehavioralEntity to Method--><g id="link_BehavioralEntity_Method"><path d="M746.5,519.61 C746.5,533.31 746.5,548.22 746.5,558.96 " fill="none" id="BehavioralEntity-backto-Method" style="stroke:#181818;stroke-width:1.0;"/><polygon fill="none" points="739.5,519.27,746.5,499.27,753.5,519.27,739.5,519.27" style="stroke:#181818;stroke-width:1.0;"/></g><!--reverse link Type to Class--><g id="link_Type_Class"><path d="M1059.12,512.34 C1040.93,527.79 1019.15,546.28 1004.22,558.96 " fill="none" id="Type-backto-Class" style="stroke:#181818;stroke-width:1.0;"/><polygon fill="none" points="1054.74,506.88,1074.52,499.27,1063.8,517.55,1054.74,506.88" style="stroke:#181818;stroke-width:1.0;"/></g><!--reverse link SourceLanguage to CustomSourceLanguage--><g id="link_SourceLanguage_CustomSourceLanguage"><path d="M302.5,243.61 C302.5,257.31 302.5,272.22 302.5,282.96 " fill="none" id="SourceLanguage-backto-CustomSourceLanguage" style="stroke:#181818;stroke-width:1.0;"/><polygon fill="none" points="295.5,243.27,302.5,223.27,309.5,243.27,295.5,243.27" style="stroke:#181818;stroke-width:1.0;"/></g><!--reverse link Type to Enum--><g id="link_Type_Enum"><path d="M1092.5,519.61 C1092.5,533.31 1092.5,548.22 1092.5,558.96 " fill="none" id="Type-backto-Enum" style="stroke:#181818;stroke-width:1.0;"/><polygon fill="none" points="1085.5,519.27,1092.5,499.27,1099.5,519.27,1085.5,519.27" style="stroke:#181818;stroke-width:1.0;"/></g><!--reverse link StructuralEntity to EnumValue--><g id="link_StructuralEntity_EnumValue"><path d="M1609.21,414.39 C1651.41,430.76 1707.53,452.53 1744.54,466.89 " fill="none" id="StructuralEntity-backto-EnumValue" style="stroke:#181818;stroke-width:1.0;"/><polygon fill="none" points="1606.45,420.82,1590.33,407.06,1611.51,407.77,1606.45,420.82" style="stroke:#181818;stroke-width:1.0;"/></g><!--reverse link Variable to ImplicitVariable--><g id="link_Variable_ImplicitVariable"><path d="M1605.04,506.94 C1643.08,523.25 1693.11,544.69 1726.24,558.89 " fill="none" id="Variable-backto-ImplicitVariable" style="stroke:#181818;stroke-width:1.0;"/><polygon fill="none" points="1602.27,513.38,1586.65,499.06,1607.79,500.51,1602.27,513.38" style="stroke:#181818;stroke-width:1.0;"/></g><!--reverse link SourceAnchor to IndexedFileAnchor--><g id="link_SourceAnchor_IndexedFileAnchor"><path d="M1160.5,243.61 C1160.5,257.31 1160.5,272.22 1160.5,282.96 " fill="none" id="SourceAnchor-backto-IndexedFileAnchor" style="stroke:#181818;stroke-width:1.0;"/><polygon fill="none" points="1153.5,243.27,1160.5,223.27,1167.5,243.27,1153.5,243.27" style="stroke:#181818;stroke-width:1.0;"/></g><!--reverse link Interface to ParameterizableInterface--><g id="link_Interface_ParameterizableInterface"><path d="M850.17,608.67 C841.17,623.13 831.02,639.44 823.86,650.96 " fill="none" id="Interface-backto-ParameterizableInterface" style="stroke:#181818;stroke-width:1.0;"/><polygon fill="none" points="844.49,604.55,861,591.27,856.38,611.95,844.49,604.55" style="stroke:#181818;stroke-width:1.0;"/></g><!--reverse link Type to ParameterizedType--><g id="link_Type_ParameterizedType"><path d="M1135.84,509.33 C1163.16,525.29 1197.52,545.37 1220.64,558.89 " fill="none" id="Type-backto-ParameterizedType" style="stroke:#181818;stroke-width:1.0;"/><polygon fill="none" points="1132.01,515.2,1118.28,499.06,1139.08,503.11,1132.01,515.2" style="stroke:#181818;stroke-width:1.0;"/></g><!--reverse link Class to ParameterizableClass--><g id="link_Class_ParameterizableClass"><path d="M1006.46,608.67 C1015.3,623.13 1025.27,639.44 1032.31,650.96 " fill="none" id="Class-backto-ParameterizableClass" style="stroke:#181818;stroke-width:1.0;"/><polygon fill="none" points="1000.29,611.98,995.83,591.27,1012.23,604.68,1000.29,611.98" style="stroke:#181818;stroke-width:1.0;"/></g><!--reverse link Type to ParameterType--><g id="link_Type_ParameterType"><path d="M1145.04,497.87 C1207.68,514.4 1312,541.93 1376.54,558.97 " fill="none" id="Type-backto-ParameterType" style="stroke:#181818;stroke-width:1.0;"/><polygon fill="none" points="1143.06,504.58,1125.51,492.71,1146.63,491.05,1143.06,504.58" style="stroke:#181818;stroke-width:1.0;"/></g><!--reverse link Type to PrimitiveType--><g id="link_Type_PrimitiveType"><path d="M1145.71,493.1 C1226.54,506.99 1385.07,534.43 1519.5,559 C1525.13,560.03 1530.98,561.11 1536.84,562.21 " fill="none" id="Type-backto-PrimitiveType" style="stroke:#181818;stroke-width:1.0;"/><polygon fill="none" points="1144.28,499.96,1125.75,489.68,1146.64,486.16,1144.28,499.96" style="stroke:#181818;stroke-width:1.0;"/></g><!--reverse link SourceAnchor to TextAnchor--><g id="link_SourceAnchor_TextAnchor"><path d="M1207.04,232.64 C1237.4,248.71 1276.06,269.18 1301.95,282.89 " fill="none" id="SourceAnchor-backto-TextAnchor" style="stroke:#181818;stroke-width:1.0;"/><polygon fill="none" points="1203.35,238.61,1188.95,223.06,1209.91,226.24,1203.35,238.61" style="stroke:#181818;stroke-width:1.0;"/></g><!--SRC=[xLnVRzms4d_Ffz2zwN1rFu1GBB3Ps8SzrB4lQxIF0LVYsaIrqaAKNBjflllnlyZXK5fViMeFbpmu5kV7cU6GCvoXAF-DDMKzL3JZlx26Vs-UlZyDn_fTMHFEi-kcP_rhHbzwsbGyko57zlAUS7fTqoDj-kpBkqpy-ySZxV-rk_kO_xt8UD-nvb4tawgwxzeJxNf6-KDx_N9gkvvsEJM_59gXx6ffWiDpowftNuq2ktReIleZQHu7yaYT8aOlBVwAAr2b6eMa8jlH_eUTr_YwSdhkGgnKEOKMwWVDkI_djSW2ebNymlROj4TbU6k8G0ThZrA3DctJ4zP8lW7CwUW0oWenXFkG6QR- -7q5n7-X4OnSqGxDmqSApc0X6-jnhPlogUqIAuxgzPyoh76Fj5aj0EUpw3WhuEFXG1dVzSE-oFPjMrFIE9Msgbqg5L2ueu2EmVBWde6BmDp0JNNZQ4OVn04epHHRcYP867TQUKjJasrS2072wAOX7_cOba1AHOM9Erg5uQi0uSn9_O32nt677NYomtbY5rfUQyxRaf6UjSrqk28ZyAC05dvFfwIaI2KZ6ZUqAIx1t7Z0-uu-itRWk4XBJObrz3cE2ndy8pbIVYBbk4tkolOa98JcFeaLqlII95U6ZnX7FaBK8en1F0IbUGQcRuRZddPtXtKlHhuVUhbNwxPndYE8rC07SHIKPhrKD0riRMV0RPTWXtvYTILCvgRCn2FtF4Qa4M9Z4WG9vLrJhZYxns9S58kPeMEd7bW1NOTsnduKvk5tXmVbj8dLu64cbeEFck2EBidD4-b8AGQKNf8ZP4873vHclT1StBRLKFlHm9iQkxyVPTTDJGPkr-3MQngNeT_gLY825MhxhRaleCXyqa96y4KwK_XxKs09oLAR3OnS9ya-YNias3bOOeRewWRfaZ1Zt0OOAIf2yGWrmJXGuAXqsfreoGvCAWdoyTkGZkJb497Wk5HcKJF2tLnwetOPXGHC6tpjGrBs3a5fhWkDMsHzRKTwhof1nbvfqFJeFuIWrFWXR8htWaaEB5dGhF8mrFNhlmSnQMA5gXqnMlSt4GHP-WWepJfmkuwMb3tJQjiyjwMADJR2keOnldwAmIxAGhWmOmpFOt4YthhVaOXqHhm_AzBdfD6_fEFxLOFPFs5nrToahAgzqEYk77G5dDefxLE5jkfHUt6XOmYisRHt6TxEsrRGRThEYO0W8SOrvOvZCRhkGcuYadDXG44OdQJlXh8VEb9ZvO1rwFVqYOW2ng50IJ262np80R2Xl-fd28yPB6GOA7OkK-ViiI72RF7gtLaAieH7MjG_M7CdEqrcpRbfM_c6Dn2xvY18MiKsvOvZCQu1DE6zzqGd4jvGT2BXzK1frc7qQShsA2nnLbpSnk2fk1Z3yrXSCYxQyvE7Lrd7of_H4Orib0gCH0w8CPEbCbqtgAayjoHDnIhIsn0A7S8x2tD8Q_44LXwBMMpk-4-xkDqTEpn1CVjRbyfC71rb4vus2aj8Ed3mqOyLNGf24TmX4en2OPSC5nTSEv_eWOeuNKwMIFg8TSAIYZvfIOr8C0eisPDEi0HU-A0Q8_yppNwNXUnsCpHbu77H_dBnLsG_aOwHlL_ddxNJfoOHRlIfgGnmawmNUpKMRk0JDP9M5tIOCmcWpji6TZXFQlYsmfmJXXZtZXDqzK9tgj_uNWFhAGEvx0arBv766SLVoxezYkXHRjhZgQOlgWV8CpO82CaqKDYK03JVsVLYJpAlR1BvpWYPo7SyK9fre44xz8-jMEaknfhPSy_ZlDr5K3jX42ocAWBdaQHY3EoeKSpfwAQjwDpPgyJCdxqgr0Htr31d9O9tCNWg4OpXUImkcGYIKfX-h3BLarTc6gghCtswB3JLSwwPY59J_O_wjTofZ13vwoX24In_ZoIugoHJCS0pJCVSxar6W7rSUUSV1c050OWGPbkqGFjKk7ql4FniTY8Zq6vCeq3RuWG2Y11eMtBBh70Rt4BxYBJdxFkRyHP4QjC8BbUaDWh_UaMAOvXVchsTyfzP__GXA3NKFHQmztiNNv8ztHqOlA-y1cFxHbrvYb94QKWmZdsO9h7KUDBLoVjP3lDL2wH47FOpW9aQnvQUPqJ-RGITYFmHE8ya9IB_9T_ymRHp8W6pwgudu-mMe5BnDiJb8NCq_lvl5_fwG5ELcjvwsedmj3Q8gUZaC4bsQFYFNJ_Q0DHCeY3kWT8CaSrwot_kc3nrYAygAG9-LqcJS0vBrIs9EuwW-U9rv0sZTJLRH3A-aUWTgr1JEo9kxf6CyO57eoAZrhwbeDdl8biJUXz8ITFLAex4wzK4S_ZkLBtYD25AstpblphLP1kR0e2O5Gl8BQE53tQspHCLgvhC7UqCGehgCMNjdKDDszh3JJ8EKvjXVuO2-xF4xwtm_JcYBsf-8yyPNwMNpfaUAEytXAE-P6cuApagmYImwq7wjQq1vEzU0Q18BlltY3Brbu-vwbteu10w1ksVMiltLZruRg69bdD0bawXddFDeiZq8rWCmkpUsdM5eMjPXQlInuvr8KJBN1QWSoYgy7q6hj2pLTg_GQ5zgCx-76KkUMr8JSVSYIOyJhnCY4wo3_DiljuB8v2on_p8qd0_SbI42H0YaXzTxyXC2DdxHd9Yz_C0E3SeS9cjbl7xZZqJF7ao95o89SOSe81XNxCIvQye2VQQ5dMFj6zxMlQqmlKtnDG8B1dZirGAg7x-QJl48kxpRHlwjWszpIa6thV7jnH7LoNIvUDRRnxDCLbe-DVDS4H30XM4dqWzs9c_ji_-EQias-c607NAAXvpnwd876R1qIbvRtnhAVibCukHE9rCIDnoju_5niNww2MjQ_Xo-HAaeYzKnD4QVjCMVEXc2y6UTFrz6xyasna2yWx8aM3d86m9aHZVQzMCS3M4i1lOKchSlMyC0RlEQKcmyz8NyzXlSlhZ-d1i-GBkYB7Vz5aZl2jcsv4xOwvBT7SCTFBla5bI7aakiWY4NsV3r4oeYAkNK2rK2wYqu0biP0OqKkkeyq_Q25nPfAV-TqXI-I08SuQD7Cn_nOX3HdzCk_04jdiSlAygmvbUMoB-EjEISyjaqQDqR6ZZop_rzCqD__fk-7_lWfSqSiUEh6VFD6NaIxwB5-A-9Ir_UjAY09_egUMiRpluLn1iKG_-ECZAZ5Ssg_NgRgt91vywynMi1jsc2drDdhpiSiMgJJiqQh1W9fNMkZ1u_xgjSbPvimQ7XFT2lX2wcVf22EVwMNs_KiEBUhXL8LhUIr11kN-YEXmxQJDCRjpqm4zklC3bWER4121rAu2wcqC0RDi1VFo2MNzR26pcoAbkoQ-ZF-lZ7TMyvW9nqxL7FM2rk86Ww1sUwQy3zxaSl7tpCsjOVqjEijDjMz5Q3f3Mlld8wGUzvBxBIEDTJud-IWYSnndt__gEc2EvpFDZvE_tZ8jUFt-n_Rvc5mugFY3wuogeerpjXyE1Tkkk8wAK5_RIhGfxtz43Uqbf-XeinU-oasWkig7vfMb_dJlf_VeV]--></g></svg>