<?xml version="1.0" encoding="us-ascii" standalone="no"?><svg xmlns="http://www.w3.org/2000/svg" xmlns:xlink="http://www.w3.org/1999/xlink" contentStyleType="text/css" height="690px" preserveAspectRatio="none" style="width:1582px;height:690px;background:#FFFFFF;" version="1.1" viewBox="0 0 1582 690" width="1582px" zoomAndPan="magnify"><defs/><g><!--class FamixJSONExporter--><g id="elem_FamixJSONExporter"><rect codeLine="2" fill="#F1F1F1" height="32" id="FamixJSONExporter" rx="2.5" ry="2.5" style="stroke:#181818;stroke-width:0.5;" width="162" x="351.5" y="7"/><ellipse cx="366.5" cy="23" fill="#ADD1B2" rx="11" ry="11" style="stroke:#181818;stroke-width:1.0;"/><path d="M369.4688,28.6406 Q368.8906,28.9375 368.25,29.0781 Q367.6094,29.2344 366.9063,29.2344 Q364.4063,29.2344 363.0781,27.5938 Q361.7656,25.9375 361.7656,22.8125 Q361.7656,19.6875 363.0781,18.0313 Q364.4063,16.375 366.9063,16.375 Q367.6094,16.375 368.25,16.5313 Q368.9063,16.6875 369.4688,16.9844 L369.4688,19.7031 Q368.8438,19.125 368.25,18.8594 Q367.6563,18.5781 367.0313,18.5781 Q365.6875,18.5781 365,19.6563 Q364.3125,20.7188 364.3125,22.8125 Q364.3125,24.9063 365,25.9844 Q365.6875,27.0469 367.0313,27.0469 Q367.6563,27.0469 368.25,26.7813 Q368.8438,26.5 369.4688,25.9219 L369.4688,28.6406 Z " fill="#000000"/><text fill="#000000" font-family="sans-serif" font-size="14" lengthAdjust="spacing" textLength="130" x="380.5" y="27.8467">FamixJSONExporter</text></g><!--class Entity--><g id="elem_Entity"><rect codeLine="9" fill="#F1F1F1" height="32" id="Entity" rx="2.5" ry="2.5" style="stroke:#181818;stroke-width:0.5;" width="70" x="595.5" y="99"/><ellipse cx="610.5" cy="115" fill="#ADD1B2" rx="11" ry="11" style="stroke:#181818;stroke-width:1.0;"/><path d="M613.4688,120.6406 Q612.8906,120.9375 612.25,121.0781 Q611.6094,121.2344 610.9063,121.2344 Q608.4063,121.2344 607.0781,119.5938 Q605.7656,117.9375 605.7656,114.8125 Q605.7656,111.6875 607.0781,110.0313 Q608.4063,108.375 610.9063,108.375 Q611.6094,108.375 612.25,108.5313 Q612.9063,108.6875 613.4688,108.9844 L613.4688,111.7031 Q612.8438,111.125 612.25,110.8594 Q611.6563,110.5781 611.0313,110.5781 Q609.6875,110.5781 609,111.6563 Q608.3125,112.7188 608.3125,114.8125 Q608.3125,116.9063 609,117.9844 Q609.6875,119.0469 611.0313,119.0469 Q611.6563,119.0469 612.25,118.7813 Q612.8438,118.5 613.4688,117.9219 L613.4688,120.6406 Z " fill="#000000"/><text fill="#000000" font-family="sans-serif" font-size="14" lengthAdjust="spacing" textLength="38" x="624.5" y="119.8467">Entity</text></g><!--class FamixBaseElement--><g id="elem_FamixBaseElement"><rect codeLine="443" fill="#F1F1F1" height="32" id="FamixBaseElement" rx="2.5" ry="2.5" style="stroke:#181818;stroke-width:0.5;" width="163" x="549" y="7"/><ellipse cx="564" cy="23" fill="#A9DCDF" rx="11" ry="11" style="stroke:#181818;stroke-width:1.0;"/><path d="M564.1094,18.3438 L562.9531,23.4219 L565.2813,23.4219 L564.1094,18.3438 Z M562.625,16.1094 L565.6094,16.1094 L568.9688,28.5 L566.5156,28.5 L565.75,25.4375 L562.4688,25.4375 L561.7188,28.5 L559.2813,28.5 L562.625,16.1094 Z " fill="#000000"/><text fill="#000000" font-family="sans-serif" font-size="14" font-style="italic" lengthAdjust="spacing" textLength="131" x="578" y="27.8467">FamixBaseElement</text></g><!--class SourceLanguage--><g id="elem_SourceLanguage"><rect codeLine="13" fill="#F1F1F1" height="32" id="SourceLanguage" rx="2.5" ry="2.5" style="stroke:#181818;stroke-width:0.5;" width="149" x="228" y="191"/><ellipse cx="243" cy="207" fill="#ADD1B2" rx="11" ry="11" style="stroke:#181818;stroke-width:1.0;"/><path d="M245.9688,212.6406 Q245.3906,212.9375 244.75,213.0781 Q244.1094,213.2344 243.4063,213.2344 Q240.9063,213.2344 239.5781,211.5938 Q238.2656,209.9375 238.2656,206.8125 Q238.2656,203.6875 239.5781,202.0313 Q240.9063,200.375 243.4063,200.375 Q244.1094,200.375 244.75,200.5313 Q245.4063,200.6875 245.9688,200.9844 L245.9688,203.7031 Q245.3438,203.125 244.75,202.8594 Q244.1563,202.5781 243.5313,202.5781 Q242.1875,202.5781 241.5,203.6563 Q240.8125,204.7188 240.8125,206.8125 Q240.8125,208.9063 241.5,209.9844 Q242.1875,211.0469 243.5313,211.0469 Q244.1563,211.0469 244.75,210.7813 Q245.3438,210.5 245.9688,209.9219 L245.9688,212.6406 Z " fill="#000000"/><text fill="#000000" font-family="sans-serif" font-size="14" lengthAdjust="spacing" textLength="117" x="257" y="211.8467">SourceLanguage</text></g><!--class Comment--><g id="elem_Comment"><rect codeLine="20" fill="#F1F1F1" height="32" id="Comment" rx="2.5" ry="2.5" style="stroke:#181818;stroke-width:0.5;" width="100" x="439.5" y="283"/><ellipse cx="454.5" cy="299" fill="#ADD1B2" rx="11" ry="11" style="stroke:#181818;stroke-width:1.0;"/><path d="M457.4688,304.6406 Q456.8906,304.9375 456.25,305.0781 Q455.6094,305.2344 454.9063,305.2344 Q452.4063,305.2344 451.0781,303.5938 Q449.7656,301.9375 449.7656,298.8125 Q449.7656,295.6875 451.0781,294.0313 Q452.4063,292.375 454.9063,292.375 Q455.6094,292.375 456.25,292.5313 Q456.9063,292.6875 457.4688,292.9844 L457.4688,295.7031 Q456.8438,295.125 456.25,294.8594 Q455.6563,294.5781 455.0313,294.5781 Q453.6875,294.5781 453,295.6563 Q452.3125,296.7188 452.3125,298.8125 Q452.3125,300.9063 453,301.9844 Q453.6875,303.0469 455.0313,303.0469 Q455.6563,303.0469 456.25,302.7813 Q456.8438,302.5 457.4688,301.9219 L457.4688,304.6406 Z " fill="#000000"/><text fill="#000000" font-family="sans-serif" font-size="14" lengthAdjust="spacing" textLength="68" x="468.5" y="303.8467">Comment</text></g><!--class SourcedEntity--><g id="elem_SourcedEntity"><rect codeLine="37" fill="#F1F1F1" height="32" id="SourcedEntity" rx="2.5" ry="2.5" style="stroke:#181818;stroke-width:0.5;" width="128" x="566.5" y="191"/><ellipse cx="581.5" cy="207" fill="#ADD1B2" rx="11" ry="11" style="stroke:#181818;stroke-width:1.0;"/><path d="M584.4688,212.6406 Q583.8906,212.9375 583.25,213.0781 Q582.6094,213.2344 581.9063,213.2344 Q579.4063,213.2344 578.0781,211.5938 Q576.7656,209.9375 576.7656,206.8125 Q576.7656,203.6875 578.0781,202.0313 Q579.4063,200.375 581.9063,200.375 Q582.6094,200.375 583.25,200.5313 Q583.9063,200.6875 584.4688,200.9844 L584.4688,203.7031 Q583.8438,203.125 583.25,202.8594 Q582.6563,202.5781 582.0313,202.5781 Q580.6875,202.5781 580,203.6563 Q579.3125,204.7188 579.3125,206.8125 Q579.3125,208.9063 580,209.9844 Q580.6875,211.0469 582.0313,211.0469 Q582.6563,211.0469 583.25,210.7813 Q583.8438,210.5 584.4688,209.9219 L584.4688,212.6406 Z " fill="#000000"/><text fill="#000000" font-family="sans-serif" font-size="14" lengthAdjust="spacing" textLength="96" x="595.5" y="211.8467">SourcedEntity</text></g><!--class SourceAnchor--><g id="elem_SourceAnchor"><rect codeLine="30" fill="#F1F1F1" height="32" id="SourceAnchor" rx="2.5" ry="2.5" style="stroke:#181818;stroke-width:0.5;" width="130" x="878.5" y="191"/><ellipse cx="893.5" cy="207" fill="#ADD1B2" rx="11" ry="11" style="stroke:#181818;stroke-width:1.0;"/><path d="M896.4688,212.6406 Q895.8906,212.9375 895.25,213.0781 Q894.6094,213.2344 893.9063,213.2344 Q891.4063,213.2344 890.0781,211.5938 Q888.7656,209.9375 888.7656,206.8125 Q888.7656,203.6875 890.0781,202.0313 Q891.4063,200.375 893.9063,200.375 Q894.6094,200.375 895.25,200.5313 Q895.9063,200.6875 896.4688,200.9844 L896.4688,203.7031 Q895.8438,203.125 895.25,202.8594 Q894.6563,202.5781 894.0313,202.5781 Q892.6875,202.5781 892,203.6563 Q891.3125,204.7188 891.3125,206.8125 Q891.3125,208.9063 892,209.9844 Q892.6875,211.0469 894.0313,211.0469 Q894.6563,211.0469 895.25,210.7813 Q895.8438,210.5 896.4688,209.9219 L896.4688,212.6406 Z " fill="#000000"/><text fill="#000000" font-family="sans-serif" font-size="14" lengthAdjust="spacing" textLength="98" x="907.5" y="211.8467">SourceAnchor</text></g><!--class Association--><g id="elem_Association"><rect codeLine="53" fill="#F1F1F1" height="32" id="Association" rx="2.5" ry="2.5" style="stroke:#181818;stroke-width:0.5;" width="111" x="575" y="283"/><ellipse cx="590" cy="299" fill="#ADD1B2" rx="11" ry="11" style="stroke:#181818;stroke-width:1.0;"/><path d="M592.9688,304.6406 Q592.3906,304.9375 591.75,305.0781 Q591.1094,305.2344 590.4063,305.2344 Q587.9063,305.2344 586.5781,303.5938 Q585.2656,301.9375 585.2656,298.8125 Q585.2656,295.6875 586.5781,294.0313 Q587.9063,292.375 590.4063,292.375 Q591.1094,292.375 591.75,292.5313 Q592.4063,292.6875 592.9688,292.9844 L592.9688,295.7031 Q592.3438,295.125 591.75,294.8594 Q591.1563,294.5781 590.5313,294.5781 Q589.1875,294.5781 588.5,295.6563 Q587.8125,296.7188 587.8125,298.8125 Q587.8125,300.9063 588.5,301.9844 Q589.1875,303.0469 590.5313,303.0469 Q591.1563,303.0469 591.75,302.7813 Q592.3438,302.5 592.9688,301.9219 L592.9688,304.6406 Z " fill="#000000"/><text fill="#000000" font-family="sans-serif" font-size="14" lengthAdjust="spacing" textLength="79" x="604" y="303.8467">Association</text></g><!--class Namespace--><g id="elem_Namespace"><rect codeLine="63" fill="#F1F1F1" height="32" id="Namespace" rx="2.5" ry="2.5" style="stroke:#181818;stroke-width:0.5;" width="114" x="296.5" y="559"/><ellipse cx="311.5" cy="575" fill="#ADD1B2" rx="11" ry="11" style="stroke:#181818;stroke-width:1.0;"/><path d="M314.4688,580.6406 Q313.8906,580.9375 313.25,581.0781 Q312.6094,581.2344 311.9063,581.2344 Q309.4063,581.2344 308.0781,579.5938 Q306.7656,577.9375 306.7656,574.8125 Q306.7656,571.6875 308.0781,570.0313 Q309.4063,568.375 311.9063,568.375 Q312.6094,568.375 313.25,568.5313 Q313.9063,568.6875 314.4688,568.9844 L314.4688,571.7031 Q313.8438,571.125 313.25,570.8594 Q312.6563,570.5781 312.0313,570.5781 Q310.6875,570.5781 310,571.6563 Q309.3125,572.7188 309.3125,574.8125 Q309.3125,576.9063 310,577.9844 Q310.6875,579.0469 312.0313,579.0469 Q312.6563,579.0469 313.25,578.7813 Q313.8438,578.5 314.4688,577.9219 L314.4688,580.6406 Z " fill="#000000"/><text fill="#000000" font-family="sans-serif" font-size="14" lengthAdjust="spacing" textLength="82" x="325.5" y="579.8467">Namespace</text></g><!--class ScopingEntity--><g id="elem_ScopingEntity"><rect codeLine="73" fill="#F1F1F1" height="32" id="ScopingEntity" rx="2.5" ry="2.5" style="stroke:#181818;stroke-width:0.5;" width="126" x="437.5" y="467"/><ellipse cx="452.5" cy="483" fill="#ADD1B2" rx="11" ry="11" style="stroke:#181818;stroke-width:1.0;"/><path d="M455.4688,488.6406 Q454.8906,488.9375 454.25,489.0781 Q453.6094,489.2344 452.9063,489.2344 Q450.4063,489.2344 449.0781,487.5938 Q447.7656,485.9375 447.7656,482.8125 Q447.7656,479.6875 449.0781,478.0313 Q450.4063,476.375 452.9063,476.375 Q453.6094,476.375 454.25,476.5313 Q454.9063,476.6875 455.4688,476.9844 L455.4688,479.7031 Q454.8438,479.125 454.25,478.8594 Q453.6563,478.5781 453.0313,478.5781 Q451.6875,478.5781 451,479.6563 Q450.3125,480.7188 450.3125,482.8125 Q450.3125,484.9063 451,485.9844 Q451.6875,487.0469 453.0313,487.0469 Q453.6563,487.0469 454.25,486.7813 Q454.8438,486.5 455.4688,485.9219 L455.4688,488.6406 Z " fill="#000000"/><text fill="#000000" font-family="sans-serif" font-size="14" lengthAdjust="spacing" textLength="94" x="466.5" y="487.8467">ScopingEntity</text></g><!--class ContainerEntity--><g id="elem_ContainerEntity"><rect codeLine="199" fill="#F1F1F1" height="32" id="ContainerEntity" rx="2.5" ry="2.5" style="stroke:#181818;stroke-width:0.5;" width="137" x="851" y="375"/><ellipse cx="866" cy="391" fill="#ADD1B2" rx="11" ry="11" style="stroke:#181818;stroke-width:1.0;"/><path d="M868.9688,396.6406 Q868.3906,396.9375 867.75,397.0781 Q867.1094,397.2344 866.4063,397.2344 Q863.9063,397.2344 862.5781,395.5938 Q861.2656,393.9375 861.2656,390.8125 Q861.2656,387.6875 862.5781,386.0313 Q863.9063,384.375 866.4063,384.375 Q867.1094,384.375 867.75,384.5313 Q868.4063,384.6875 868.9688,384.9844 L868.9688,387.7031 Q868.3438,387.125 867.75,386.8594 Q867.1563,386.5781 866.5313,386.5781 Q865.1875,386.5781 864.5,387.6563 Q863.8125,388.7188 863.8125,390.8125 Q863.8125,392.9063 864.5,393.9844 Q865.1875,395.0469 866.5313,395.0469 Q867.1563,395.0469 867.75,394.7813 Q868.3438,394.5 868.9688,393.9219 L868.9688,396.6406 Z " fill="#000000"/><text fill="#000000" font-family="sans-serif" font-size="14" lengthAdjust="spacing" textLength="105" x="880" y="395.8467">ContainerEntity</text></g><!--class ScriptEntity--><g id="elem_ScriptEntity"><rect codeLine="80" fill="#F1F1F1" height="32" id="ScriptEntity" rx="2.5" ry="2.5" style="stroke:#181818;stroke-width:0.5;" width="109" x="446" y="559"/><ellipse cx="461" cy="575" fill="#ADD1B2" rx="11" ry="11" style="stroke:#181818;stroke-width:1.0;"/><path d="M463.9688,580.6406 Q463.3906,580.9375 462.75,581.0781 Q462.1094,581.2344 461.4063,581.2344 Q458.9063,581.2344 457.5781,579.5938 Q456.2656,577.9375 456.2656,574.8125 Q456.2656,571.6875 457.5781,570.0313 Q458.9063,568.375 461.4063,568.375 Q462.1094,568.375 462.75,568.5313 Q463.4063,568.6875 463.9688,568.9844 L463.9688,571.7031 Q463.3438,571.125 462.75,570.8594 Q462.1563,570.5781 461.5313,570.5781 Q460.1875,570.5781 459.5,571.6563 Q458.8125,572.7188 458.8125,574.8125 Q458.8125,576.9063 459.5,577.9844 Q460.1875,579.0469 461.5313,579.0469 Q462.1563,579.0469 462.75,578.7813 Q463.3438,578.5 463.9688,577.9219 L463.9688,580.6406 Z " fill="#000000"/><text fill="#000000" font-family="sans-serif" font-size="14" lengthAdjust="spacing" textLength="77" x="475" y="579.8467">ScriptEntity</text></g><!--class Module--><g id="elem_Module"><rect codeLine="90" fill="#F1F1F1" height="32" id="Module" rx="2.5" ry="2.5" style="stroke:#181818;stroke-width:0.5;" width="83" x="459" y="651"/><ellipse cx="474" cy="667" fill="#ADD1B2" rx="11" ry="11" style="stroke:#181818;stroke-width:1.0;"/><path d="M476.9688,672.6406 Q476.3906,672.9375 475.75,673.0781 Q475.1094,673.2344 474.4063,673.2344 Q471.9063,673.2344 470.5781,671.5938 Q469.2656,669.9375 469.2656,666.8125 Q469.2656,663.6875 470.5781,662.0313 Q471.9063,660.375 474.4063,660.375 Q475.1094,660.375 475.75,660.5313 Q476.4063,660.6875 476.9688,660.9844 L476.9688,663.7031 Q476.3438,663.125 475.75,662.8594 Q475.1563,662.5781 474.5313,662.5781 Q473.1875,662.5781 472.5,663.6563 Q471.8125,664.7188 471.8125,666.8125 Q471.8125,668.9063 472.5,669.9844 Q473.1875,671.0469 474.5313,671.0469 Q475.1563,671.0469 475.75,670.7813 Q476.3438,670.5 476.9688,669.9219 L476.9688,672.6406 Z " fill="#000000"/><text fill="#000000" font-family="sans-serif" font-size="14" lengthAdjust="spacing" textLength="51" x="488" y="671.8467">Module</text></g><!--class ImportClause--><g id="elem_ImportClause"><rect codeLine="97" fill="#F1F1F1" height="32" id="ImportClause" rx="2.5" ry="2.5" style="stroke:#181818;stroke-width:0.5;" width="123" x="155" y="375"/><ellipse cx="170" cy="391" fill="#ADD1B2" rx="11" ry="11" style="stroke:#181818;stroke-width:1.0;"/><path d="M172.9688,396.6406 Q172.3906,396.9375 171.75,397.0781 Q171.1094,397.2344 170.4063,397.2344 Q167.9063,397.2344 166.5781,395.5938 Q165.2656,393.9375 165.2656,390.8125 Q165.2656,387.6875 166.5781,386.0313 Q167.9063,384.375 170.4063,384.375 Q171.1094,384.375 171.75,384.5313 Q172.4063,384.6875 172.9688,384.9844 L172.9688,387.7031 Q172.3438,387.125 171.75,386.8594 Q171.1563,386.5781 170.5313,386.5781 Q169.1875,386.5781 168.5,387.6563 Q167.8125,388.7188 167.8125,390.8125 Q167.8125,392.9063 168.5,393.9844 Q169.1875,395.0469 170.5313,395.0469 Q171.1563,395.0469 171.75,394.7813 Q172.3438,394.5 172.9688,393.9219 L172.9688,396.6406 Z " fill="#000000"/><text fill="#000000" font-family="sans-serif" font-size="14" lengthAdjust="spacing" textLength="91" x="184" y="395.8467">ImportClause</text></g><!--class Alias--><g id="elem_Alias"><rect codeLine="110" fill="#F1F1F1" height="32" id="Alias" rx="2.5" ry="2.5" style="stroke:#181818;stroke-width:0.5;" width="63" x="1023" y="375"/><ellipse cx="1038" cy="391" fill="#ADD1B2" rx="11" ry="11" style="stroke:#181818;stroke-width:1.0;"/><path d="M1040.9688,396.6406 Q1040.3906,396.9375 1039.75,397.0781 Q1039.1094,397.2344 1038.4063,397.2344 Q1035.9063,397.2344 1034.5781,395.5938 Q1033.2656,393.9375 1033.2656,390.8125 Q1033.2656,387.6875 1034.5781,386.0313 Q1035.9063,384.375 1038.4063,384.375 Q1039.1094,384.375 1039.75,384.5313 Q1040.4063,384.6875 1040.9688,384.9844 L1040.9688,387.7031 Q1040.3438,387.125 1039.75,386.8594 Q1039.1563,386.5781 1038.5313,386.5781 Q1037.1875,386.5781 1036.5,387.6563 Q1035.8125,388.7188 1035.8125,390.8125 Q1035.8125,392.9063 1036.5,393.9844 Q1037.1875,395.0469 1038.5313,395.0469 Q1039.1563,395.0469 1039.75,394.7813 Q1040.3438,394.5 1040.9688,393.9219 L1040.9688,396.6406 Z " fill="#000000"/><text fill="#000000" font-family="sans-serif" font-size="14" lengthAdjust="spacing" textLength="31" x="1052" y="395.8467">Alias</text></g><!--class NamedEntity--><g id="elem_NamedEntity"><rect codeLine="117" fill="#F1F1F1" height="32" id="NamedEntity" rx="2.5" ry="2.5" style="stroke:#181818;stroke-width:0.5;" width="119" x="860" y="283"/><ellipse cx="875" cy="299" fill="#ADD1B2" rx="11" ry="11" style="stroke:#181818;stroke-width:1.0;"/><path d="M877.9688,304.6406 Q877.3906,304.9375 876.75,305.0781 Q876.1094,305.2344 875.4063,305.2344 Q872.9063,305.2344 871.5781,303.5938 Q870.2656,301.9375 870.2656,298.8125 Q870.2656,295.6875 871.5781,294.0313 Q872.9063,292.375 875.4063,292.375 Q876.1094,292.375 876.75,292.5313 Q877.4063,292.6875 877.9688,292.9844 L877.9688,295.7031 Q877.3438,295.125 876.75,294.8594 Q876.1563,294.5781 875.5313,294.5781 Q874.1875,294.5781 873.5,295.6563 Q872.8125,296.7188 872.8125,298.8125 Q872.8125,300.9063 873.5,301.9844 Q874.1875,303.0469 875.5313,303.0469 Q876.1563,303.0469 876.75,302.7813 Q877.3438,302.5 877.9688,301.9219 L877.9688,304.6406 Z " fill="#000000"/><text fill="#000000" font-family="sans-serif" font-size="14" lengthAdjust="spacing" textLength="87" x="889" y="303.8467">NamedEntity</text></g><!--class Parameter--><g id="elem_Parameter"><rect codeLine="136" fill="#F1F1F1" height="32" id="Parameter" rx="2.5" ry="2.5" style="stroke:#181818;stroke-width:0.5;" width="103" x="1107" y="467"/><ellipse cx="1122" cy="483" fill="#ADD1B2" rx="11" ry="11" style="stroke:#181818;stroke-width:1.0;"/><path d="M1124.9688,488.6406 Q1124.3906,488.9375 1123.75,489.0781 Q1123.1094,489.2344 1122.4063,489.2344 Q1119.9063,489.2344 1118.5781,487.5938 Q1117.2656,485.9375 1117.2656,482.8125 Q1117.2656,479.6875 1118.5781,478.0313 Q1119.9063,476.375 1122.4063,476.375 Q1123.1094,476.375 1123.75,476.5313 Q1124.4063,476.6875 1124.9688,476.9844 L1124.9688,479.7031 Q1124.3438,479.125 1123.75,478.8594 Q1123.1563,478.5781 1122.5313,478.5781 Q1121.1875,478.5781 1120.5,479.6563 Q1119.8125,480.7188 1119.8125,482.8125 Q1119.8125,484.9063 1120.5,485.9844 Q1121.1875,487.0469 1122.5313,487.0469 Q1123.1563,487.0469 1123.75,486.7813 Q1124.3438,486.5 1124.9688,485.9219 L1124.9688,488.6406 Z " fill="#000000"/><text fill="#000000" font-family="sans-serif" font-size="14" lengthAdjust="spacing" textLength="71" x="1136" y="487.8467">Parameter</text></g><!--class StructuralEntity--><g id="elem_StructuralEntity"><rect codeLine="252" fill="#F1F1F1" height="32" id="StructuralEntity" rx="2.5" ry="2.5" style="stroke:#181818;stroke-width:0.5;" width="136" x="1220.5" y="375"/><ellipse cx="1235.5" cy="391" fill="#ADD1B2" rx="11" ry="11" style="stroke:#181818;stroke-width:1.0;"/><path d="M1238.4688,396.6406 Q1237.8906,396.9375 1237.25,397.0781 Q1236.6094,397.2344 1235.9063,397.2344 Q1233.4063,397.2344 1232.0781,395.5938 Q1230.7656,393.9375 1230.7656,390.8125 Q1230.7656,387.6875 1232.0781,386.0313 Q1233.4063,384.375 1235.9063,384.375 Q1236.6094,384.375 1237.25,384.5313 Q1237.9063,384.6875 1238.4688,384.9844 L1238.4688,387.7031 Q1237.8438,387.125 1237.25,386.8594 Q1236.6563,386.5781 1236.0313,386.5781 Q1234.6875,386.5781 1234,387.6563 Q1233.3125,388.7188 1233.3125,390.8125 Q1233.3125,392.9063 1234,393.9844 Q1234.6875,395.0469 1236.0313,395.0469 Q1236.6563,395.0469 1237.25,394.7813 Q1237.8438,394.5 1238.4688,393.9219 L1238.4688,396.6406 Z " fill="#000000"/><text fill="#000000" font-family="sans-serif" font-size="14" lengthAdjust="spacing" textLength="104" x="1249.5" y="395.8467">StructuralEntity</text></g><!--class BehavioralEntity--><g id="elem_BehavioralEntity"><rect codeLine="143" fill="#F1F1F1" height="32" id="BehavioralEntity" rx="2.5" ry="2.5" style="stroke:#181818;stroke-width:0.5;" width="141" x="690" y="467"/><ellipse cx="705" cy="483" fill="#ADD1B2" rx="11" ry="11" style="stroke:#181818;stroke-width:1.0;"/><path d="M707.9688,488.6406 Q707.3906,488.9375 706.75,489.0781 Q706.1094,489.2344 705.4063,489.2344 Q702.9063,489.2344 701.5781,487.5938 Q700.2656,485.9375 700.2656,482.8125 Q700.2656,479.6875 701.5781,478.0313 Q702.9063,476.375 705.4063,476.375 Q706.1094,476.375 706.75,476.5313 Q707.4063,476.6875 707.9688,476.9844 L707.9688,479.7031 Q707.3438,479.125 706.75,478.8594 Q706.1563,478.5781 705.5313,478.5781 Q704.1875,478.5781 703.5,479.6563 Q702.8125,480.7188 702.8125,482.8125 Q702.8125,484.9063 703.5,485.9844 Q704.1875,487.0469 705.5313,487.0469 Q706.1563,487.0469 706.75,486.7813 Q707.3438,486.5 707.9688,485.9219 L707.9688,488.6406 Z " fill="#000000"/><text fill="#000000" font-family="sans-serif" font-size="14" lengthAdjust="spacing" textLength="109" x="719" y="487.8467">BehavioralEntity</text></g><!--class Invocation--><g id="elem_Invocation"><rect codeLine="162" fill="#F1F1F1" height="32" id="Invocation" rx="2.5" ry="2.5" style="stroke:#181818;stroke-width:0.5;" width="102" x="313.5" y="375"/><ellipse cx="328.5" cy="391" fill="#ADD1B2" rx="11" ry="11" style="stroke:#181818;stroke-width:1.0;"/><path d="M331.4688,396.6406 Q330.8906,396.9375 330.25,397.0781 Q329.6094,397.2344 328.9063,397.2344 Q326.4063,397.2344 325.0781,395.5938 Q323.7656,393.9375 323.7656,390.8125 Q323.7656,387.6875 325.0781,386.0313 Q326.4063,384.375 328.9063,384.375 Q329.6094,384.375 330.25,384.5313 Q330.9063,384.6875 331.4688,384.9844 L331.4688,387.7031 Q330.8438,387.125 330.25,386.8594 Q329.6563,386.5781 329.0313,386.5781 Q327.6875,386.5781 327,387.6563 Q326.3125,388.7188 326.3125,390.8125 Q326.3125,392.9063 327,393.9844 Q327.6875,395.0469 329.0313,395.0469 Q329.6563,395.0469 330.25,394.7813 Q330.8438,394.5 331.4688,393.9219 L331.4688,396.6406 Z " fill="#000000"/><text fill="#000000" font-family="sans-serif" font-size="14" lengthAdjust="spacing" textLength="70" x="342.5" y="395.8467">Invocation</text></g><!--class Reference--><g id="elem_Reference"><rect codeLine="178" fill="#F1F1F1" height="32" id="Reference" rx="2.5" ry="2.5" style="stroke:#181818;stroke-width:0.5;" width="104" x="450.5" y="375"/><ellipse cx="465.5" cy="391" fill="#ADD1B2" rx="11" ry="11" style="stroke:#181818;stroke-width:1.0;"/><path d="M468.4688,396.6406 Q467.8906,396.9375 467.25,397.0781 Q466.6094,397.2344 465.9063,397.2344 Q463.4063,397.2344 462.0781,395.5938 Q460.7656,393.9375 460.7656,390.8125 Q460.7656,387.6875 462.0781,386.0313 Q463.4063,384.375 465.9063,384.375 Q466.6094,384.375 467.25,384.5313 Q467.9063,384.6875 468.4688,384.9844 L468.4688,387.7031 Q467.8438,387.125 467.25,386.8594 Q466.6563,386.5781 466.0313,386.5781 Q464.6875,386.5781 464,387.6563 Q463.3125,388.7188 463.3125,390.8125 Q463.3125,392.9063 464,393.9844 Q464.6875,395.0469 466.0313,395.0469 Q466.6563,395.0469 467.25,394.7813 Q467.8438,394.5 468.4688,393.9219 L468.4688,396.6406 Z " fill="#000000"/><text fill="#000000" font-family="sans-serif" font-size="14" lengthAdjust="spacing" textLength="72" x="479.5" y="395.8467">Reference</text></g><!--class Function--><g id="elem_Function"><rect codeLine="188" fill="#F1F1F1" height="32" id="Function" rx="2.5" ry="2.5" style="stroke:#181818;stroke-width:0.5;" width="92" x="590.5" y="559"/><ellipse cx="605.5" cy="575" fill="#ADD1B2" rx="11" ry="11" style="stroke:#181818;stroke-width:1.0;"/><path d="M608.4688,580.6406 Q607.8906,580.9375 607.25,581.0781 Q606.6094,581.2344 605.9063,581.2344 Q603.4063,581.2344 602.0781,579.5938 Q600.7656,577.9375 600.7656,574.8125 Q600.7656,571.6875 602.0781,570.0313 Q603.4063,568.375 605.9063,568.375 Q606.6094,568.375 607.25,568.5313 Q607.9063,568.6875 608.4688,568.9844 L608.4688,571.7031 Q607.8438,571.125 607.25,570.8594 Q606.6563,570.5781 606.0313,570.5781 Q604.6875,570.5781 604,571.6563 Q603.3125,572.7188 603.3125,574.8125 Q603.3125,576.9063 604,577.9844 Q604.6875,579.0469 606.0313,579.0469 Q606.6563,579.0469 607.25,578.7813 Q607.8438,578.5 608.4688,577.9219 L608.4688,580.6406 Z " fill="#000000"/><text fill="#000000" font-family="sans-serif" font-size="14" lengthAdjust="spacing" textLength="60" x="619.5" y="579.8467">Function</text></g><!--class Variable--><g id="elem_Variable"><rect codeLine="192" fill="#F1F1F1" height="32" id="Variable" rx="2.5" ry="2.5" style="stroke:#181818;stroke-width:0.5;" width="86" x="1245.5" y="467"/><ellipse cx="1260.5" cy="483" fill="#ADD1B2" rx="11" ry="11" style="stroke:#181818;stroke-width:1.0;"/><path d="M1263.4688,488.6406 Q1262.8906,488.9375 1262.25,489.0781 Q1261.6094,489.2344 1260.9063,489.2344 Q1258.4063,489.2344 1257.0781,487.5938 Q1255.7656,485.9375 1255.7656,482.8125 Q1255.7656,479.6875 1257.0781,478.0313 Q1258.4063,476.375 1260.9063,476.375 Q1261.6094,476.375 1262.25,476.5313 Q1262.9063,476.6875 1263.4688,476.9844 L1263.4688,479.7031 Q1262.8438,479.125 1262.25,478.8594 Q1261.6563,478.5781 1261.0313,478.5781 Q1259.6875,478.5781 1259,479.6563 Q1258.3125,480.7188 1258.3125,482.8125 Q1258.3125,484.9063 1259,485.9844 Q1259.6875,487.0469 1261.0313,487.0469 Q1261.6563,487.0469 1262.25,486.7813 Q1262.8438,486.5 1263.4688,485.9219 L1263.4688,488.6406 Z " fill="#000000"/><text fill="#000000" font-family="sans-serif" font-size="14" lengthAdjust="spacing" textLength="54" x="1274.5" y="487.8467">Variable</text></g><!--class Type--><g id="elem_Type"><rect codeLine="236" fill="#F1F1F1" height="32" id="Type" rx="2.5" ry="2.5" style="stroke:#181818;stroke-width:0.5;" width="66" x="945.5" y="467"/><ellipse cx="960.5" cy="483" fill="#ADD1B2" rx="11" ry="11" style="stroke:#181818;stroke-width:1.0;"/><path d="M963.4688,488.6406 Q962.8906,488.9375 962.25,489.0781 Q961.6094,489.2344 960.9063,489.2344 Q958.4063,489.2344 957.0781,487.5938 Q955.7656,485.9375 955.7656,482.8125 Q955.7656,479.6875 957.0781,478.0313 Q958.4063,476.375 960.9063,476.375 Q961.6094,476.375 962.25,476.5313 Q962.9063,476.6875 963.4688,476.9844 L963.4688,479.7031 Q962.8438,479.125 962.25,478.8594 Q961.6563,478.5781 961.0313,478.5781 Q959.6875,478.5781 959,479.6563 Q958.3125,480.7188 958.3125,482.8125 Q958.3125,484.9063 959,485.9844 Q959.6875,487.0469 961.0313,487.0469 Q961.6563,487.0469 962.25,486.7813 Q962.8438,486.5 963.4688,485.9219 L963.4688,488.6406 Z " fill="#000000"/><text fill="#000000" font-family="sans-serif" font-size="14" lengthAdjust="spacing" textLength="34" x="974.5" y="487.8467">Type</text></g><!--class Access--><g id="elem_Access"><rect codeLine="262" fill="#F1F1F1" height="32" id="Access" rx="2.5" ry="2.5" style="stroke:#181818;stroke-width:0.5;" width="82" x="589.5" y="375"/><ellipse cx="604.5" cy="391" fill="#ADD1B2" rx="11" ry="11" style="stroke:#181818;stroke-width:1.0;"/><path d="M607.4688,396.6406 Q606.8906,396.9375 606.25,397.0781 Q605.6094,397.2344 604.9063,397.2344 Q602.4063,397.2344 601.0781,395.5938 Q599.7656,393.9375 599.7656,390.8125 Q599.7656,387.6875 601.0781,386.0313 Q602.4063,384.375 604.9063,384.375 Q605.6094,384.375 606.25,384.5313 Q606.9063,384.6875 607.4688,384.9844 L607.4688,387.7031 Q606.8438,387.125 606.25,386.8594 Q605.6563,386.5781 605.0313,386.5781 Q603.6875,386.5781 603,387.6563 Q602.3125,388.7188 602.3125,390.8125 Q602.3125,392.9063 603,393.9844 Q603.6875,395.0469 605.0313,395.0469 Q605.6563,395.0469 606.25,394.7813 Q606.8438,394.5 607.4688,393.9219 L607.4688,396.6406 Z " fill="#000000"/><text fill="#000000" font-family="sans-serif" font-size="14" lengthAdjust="spacing" textLength="50" x="618.5" y="395.8467">Access</text></g><!--class CSourceLanguage--><g id="elem_CSourceLanguage"><rect codeLine="275" fill="#F1F1F1" height="32" id="CSourceLanguage" rx="2.5" ry="2.5" style="stroke:#181818;stroke-width:0.5;" width="159" x="7" y="283"/><ellipse cx="22" cy="299" fill="#ADD1B2" rx="11" ry="11" style="stroke:#181818;stroke-width:1.0;"/><path d="M24.9688,304.6406 Q24.3906,304.9375 23.75,305.0781 Q23.1094,305.2344 22.4063,305.2344 Q19.9063,305.2344 18.5781,303.5938 Q17.2656,301.9375 17.2656,298.8125 Q17.2656,295.6875 18.5781,294.0313 Q19.9063,292.375 22.4063,292.375 Q23.1094,292.375 23.75,292.5313 Q24.4063,292.6875 24.9688,292.9844 L24.9688,295.7031 Q24.3438,295.125 23.75,294.8594 Q23.1563,294.5781 22.5313,294.5781 Q21.1875,294.5781 20.5,295.6563 Q19.8125,296.7188 19.8125,298.8125 Q19.8125,300.9063 20.5,301.9844 Q21.1875,303.0469 22.5313,303.0469 Q23.1563,303.0469 23.75,302.7813 Q24.3438,302.5 24.9688,301.9219 L24.9688,304.6406 Z " fill="#000000"/><text fill="#000000" font-family="sans-serif" font-size="14" lengthAdjust="spacing" textLength="127" x="36" y="303.8467">CSourceLanguage</text></g><!--class Method--><g id="elem_Method"><rect codeLine="279" fill="#F1F1F1" height="32" id="Method" rx="2.5" ry="2.5" style="stroke:#181818;stroke-width:0.5;" width="85" x="718" y="559"/><ellipse cx="733" cy="575" fill="#ADD1B2" rx="11" ry="11" style="stroke:#181818;stroke-width:1.0;"/><path d="M735.9688,580.6406 Q735.3906,580.9375 734.75,581.0781 Q734.1094,581.2344 733.4063,581.2344 Q730.9063,581.2344 729.5781,579.5938 Q728.2656,577.9375 728.2656,574.8125 Q728.2656,571.6875 729.5781,570.0313 Q730.9063,568.375 733.4063,568.375 Q734.1094,568.375 734.75,568.5313 Q735.4063,568.6875 735.9688,568.9844 L735.9688,571.7031 Q735.3438,571.125 734.75,570.8594 Q734.1563,570.5781 733.5313,570.5781 Q732.1875,570.5781 731.5,571.6563 Q730.8125,572.7188 730.8125,574.8125 Q730.8125,576.9063 731.5,577.9844 Q732.1875,579.0469 733.5313,579.0469 Q734.1563,579.0469 734.75,578.7813 Q735.3438,578.5 735.9688,577.9219 L735.9688,580.6406 Z " fill="#000000"/><text fill="#000000" font-family="sans-serif" font-size="14" lengthAdjust="spacing" textLength="53" x="747" y="579.8467">Method</text></g><!--class Field--><g id="elem_Field"><rect codeLine="304" fill="#F1F1F1" height="32" id="Field" rx="2.5" ry="2.5" style="stroke:#181818;stroke-width:0.5;" width="64" x="1366.5" y="467"/><ellipse cx="1381.5" cy="483" fill="#ADD1B2" rx="11" ry="11" style="stroke:#181818;stroke-width:1.0;"/><path d="M1384.4688,488.6406 Q1383.8906,488.9375 1383.25,489.0781 Q1382.6094,489.2344 1381.9063,489.2344 Q1379.4063,489.2344 1378.0781,487.5938 Q1376.7656,485.9375 1376.7656,482.8125 Q1376.7656,479.6875 1378.0781,478.0313 Q1379.4063,476.375 1381.9063,476.375 Q1382.6094,476.375 1383.25,476.5313 Q1383.9063,476.6875 1384.4688,476.9844 L1384.4688,479.7031 Q1383.8438,479.125 1383.25,478.8594 Q1382.6563,478.5781 1382.0313,478.5781 Q1380.6875,478.5781 1380,479.6563 Q1379.3125,480.7188 1379.3125,482.8125 Q1379.3125,484.9063 1380,485.9844 Q1380.6875,487.0469 1382.0313,487.0469 Q1382.6563,487.0469 1383.25,486.7813 Q1383.8438,486.5 1384.4688,485.9219 L1384.4688,488.6406 Z " fill="#000000"/><text fill="#000000" font-family="sans-serif" font-size="14" lengthAdjust="spacing" textLength="32" x="1395.5" y="487.8467">Field</text></g><!--class Inheritance--><g id="elem_Inheritance"><rect codeLine="317" fill="#F1F1F1" height="32" id="Inheritance" rx="2.5" ry="2.5" style="stroke:#181818;stroke-width:0.5;" width="109" x="707" y="375"/><ellipse cx="722" cy="391" fill="#ADD1B2" rx="11" ry="11" style="stroke:#181818;stroke-width:1.0;"/><path d="M724.9688,396.6406 Q724.3906,396.9375 723.75,397.0781 Q723.1094,397.2344 722.4063,397.2344 Q719.9063,397.2344 718.5781,395.5938 Q717.2656,393.9375 717.2656,390.8125 Q717.2656,387.6875 718.5781,386.0313 Q719.9063,384.375 722.4063,384.375 Q723.1094,384.375 723.75,384.5313 Q724.4063,384.6875 724.9688,384.9844 L724.9688,387.7031 Q724.3438,387.125 723.75,386.8594 Q723.1563,386.5781 722.5313,386.5781 Q721.1875,386.5781 720.5,387.6563 Q719.8125,388.7188 719.8125,390.8125 Q719.8125,392.9063 720.5,393.9844 Q721.1875,395.0469 722.5313,395.0469 Q723.1563,395.0469 723.75,394.7813 Q724.3438,394.5 724.9688,393.9219 L724.9688,396.6406 Z " fill="#000000"/><text fill="#000000" font-family="sans-serif" font-size="14" lengthAdjust="spacing" textLength="77" x="736" y="395.8467">Inheritance</text></g><!--class Class--><g id="elem_Class"><rect codeLine="327" fill="#F1F1F1" height="32" id="Class" rx="2.5" ry="2.5" style="stroke:#181818;stroke-width:0.5;" width="69" x="838" y="559"/><ellipse cx="853" cy="575" fill="#ADD1B2" rx="11" ry="11" style="stroke:#181818;stroke-width:1.0;"/><path d="M855.9688,580.6406 Q855.3906,580.9375 854.75,581.0781 Q854.1094,581.2344 853.4063,581.2344 Q850.9063,581.2344 849.5781,579.5938 Q848.2656,577.9375 848.2656,574.8125 Q848.2656,571.6875 849.5781,570.0313 Q850.9063,568.375 853.4063,568.375 Q854.1094,568.375 854.75,568.5313 Q855.4063,568.6875 855.9688,568.9844 L855.9688,571.7031 Q855.3438,571.125 854.75,570.8594 Q854.1563,570.5781 853.5313,570.5781 Q852.1875,570.5781 851.5,571.6563 Q850.8125,572.7188 850.8125,574.8125 Q850.8125,576.9063 851.5,577.9844 Q852.1875,579.0469 853.5313,579.0469 Q854.1563,579.0469 854.75,578.7813 Q855.3438,578.5 855.9688,577.9219 L855.9688,580.6406 Z " fill="#000000"/><text fill="#000000" font-family="sans-serif" font-size="14" lengthAdjust="spacing" textLength="37" x="867" y="579.8467">Class</text></g><!--class CustomSourceLanguage--><g id="elem_CustomSourceLanguage"><rect codeLine="352" fill="#F1F1F1" height="32" id="CustomSourceLanguage" rx="2.5" ry="2.5" style="stroke:#181818;stroke-width:0.5;" width="203" x="201" y="283"/><ellipse cx="216" cy="299" fill="#ADD1B2" rx="11" ry="11" style="stroke:#181818;stroke-width:1.0;"/><path d="M218.9688,304.6406 Q218.3906,304.9375 217.75,305.0781 Q217.1094,305.2344 216.4063,305.2344 Q213.9063,305.2344 212.5781,303.5938 Q211.2656,301.9375 211.2656,298.8125 Q211.2656,295.6875 212.5781,294.0313 Q213.9063,292.375 216.4063,292.375 Q217.1094,292.375 217.75,292.5313 Q218.4063,292.6875 218.9688,292.9844 L218.9688,295.7031 Q218.3438,295.125 217.75,294.8594 Q217.1563,294.5781 216.5313,294.5781 Q215.1875,294.5781 214.5,295.6563 Q213.8125,296.7188 213.8125,298.8125 Q213.8125,300.9063 214.5,301.9844 Q215.1875,303.0469 216.5313,303.0469 Q217.1563,303.0469 217.75,302.7813 Q218.3438,302.5 218.9688,301.9219 L218.9688,304.6406 Z " fill="#000000"/><text fill="#000000" font-family="sans-serif" font-size="14" lengthAdjust="spacing" textLength="171" x="230" y="303.8467">CustomSourceLanguage</text></g><!--class Enum--><g id="elem_Enum"><rect codeLine="359" fill="#F1F1F1" height="32" id="Enum" rx="2.5" ry="2.5" style="stroke:#181818;stroke-width:0.5;" width="72" x="942.5" y="559"/><ellipse cx="957.5" cy="575" fill="#ADD1B2" rx="11" ry="11" style="stroke:#181818;stroke-width:1.0;"/><path d="M960.4688,580.6406 Q959.8906,580.9375 959.25,581.0781 Q958.6094,581.2344 957.9063,581.2344 Q955.4063,581.2344 954.0781,579.5938 Q952.7656,577.9375 952.7656,574.8125 Q952.7656,571.6875 954.0781,570.0313 Q955.4063,568.375 957.9063,568.375 Q958.6094,568.375 959.25,568.5313 Q959.9063,568.6875 960.4688,568.9844 L960.4688,571.7031 Q959.8438,571.125 959.25,570.8594 Q958.6563,570.5781 958.0313,570.5781 Q956.6875,570.5781 956,571.6563 Q955.3125,572.7188 955.3125,574.8125 Q955.3125,576.9063 956,577.9844 Q956.6875,579.0469 958.0313,579.0469 Q958.6563,579.0469 959.25,578.7813 Q959.8438,578.5 960.4688,577.9219 L960.4688,580.6406 Z " fill="#000000"/><text fill="#000000" font-family="sans-serif" font-size="14" lengthAdjust="spacing" textLength="40" x="971.5" y="579.8467">Enum</text></g><!--class EnumValue--><g id="elem_EnumValue"><rect codeLine="366" fill="#F1F1F1" height="32" id="EnumValue" rx="2.5" ry="2.5" style="stroke:#181818;stroke-width:0.5;" width="110" x="1465.5" y="467"/><ellipse cx="1480.5" cy="483" fill="#ADD1B2" rx="11" ry="11" style="stroke:#181818;stroke-width:1.0;"/><path d="M1483.4688,488.6406 Q1482.8906,488.9375 1482.25,489.0781 Q1481.6094,489.2344 1480.9063,489.2344 Q1478.4063,489.2344 1477.0781,487.5938 Q1475.7656,485.9375 1475.7656,482.8125 Q1475.7656,479.6875 1477.0781,478.0313 Q1478.4063,476.375 1480.9063,476.375 Q1481.6094,476.375 1482.25,476.5313 Q1482.9063,476.6875 1483.4688,476.9844 L1483.4688,479.7031 Q1482.8438,479.125 1482.25,478.8594 Q1481.6563,478.5781 1481.0313,478.5781 Q1479.6875,478.5781 1479,479.6563 Q1478.3125,480.7188 1478.3125,482.8125 Q1478.3125,484.9063 1479,485.9844 Q1479.6875,487.0469 1481.0313,487.0469 Q1481.6563,487.0469 1482.25,486.7813 Q1482.8438,486.5 1483.4688,485.9219 L1483.4688,488.6406 Z " fill="#000000"/><text fill="#000000" font-family="sans-serif" font-size="14" lengthAdjust="spacing" textLength="78" x="1494.5" y="487.8467">EnumValue</text></g><!--class ImplicitVariable--><g id="elem_ImplicitVariable"><rect codeLine="373" fill="#F1F1F1" height="32" id="ImplicitVariable" rx="2.5" ry="2.5" style="stroke:#181818;stroke-width:0.5;" width="133" x="1380" y="559"/><ellipse cx="1395" cy="575" fill="#ADD1B2" rx="11" ry="11" style="stroke:#181818;stroke-width:1.0;"/><path d="M1397.9688,580.6406 Q1397.3906,580.9375 1396.75,581.0781 Q1396.1094,581.2344 1395.4063,581.2344 Q1392.9063,581.2344 1391.5781,579.5938 Q1390.2656,577.9375 1390.2656,574.8125 Q1390.2656,571.6875 1391.5781,570.0313 Q1392.9063,568.375 1395.4063,568.375 Q1396.1094,568.375 1396.75,568.5313 Q1397.4063,568.6875 1397.9688,568.9844 L1397.9688,571.7031 Q1397.3438,571.125 1396.75,570.8594 Q1396.1563,570.5781 1395.5313,570.5781 Q1394.1875,570.5781 1393.5,571.6563 Q1392.8125,572.7188 1392.8125,574.8125 Q1392.8125,576.9063 1393.5,577.9844 Q1394.1875,579.0469 1395.5313,579.0469 Q1396.1563,579.0469 1396.75,578.7813 Q1397.3438,578.5 1397.9688,577.9219 L1397.9688,580.6406 Z " fill="#000000"/><text fill="#000000" font-family="sans-serif" font-size="14" lengthAdjust="spacing" textLength="101" x="1409" y="579.8467">ImplicitVariable</text></g><!--class IndexedFileAnchor--><g id="elem_IndexedFileAnchor"><rect codeLine="377" fill="#F1F1F1" height="32" id="IndexedFileAnchor" rx="2.5" ry="2.5" style="stroke:#181818;stroke-width:0.5;" width="159" x="1014" y="283"/><ellipse cx="1029" cy="299" fill="#ADD1B2" rx="11" ry="11" style="stroke:#181818;stroke-width:1.0;"/><path d="M1031.9688,304.6406 Q1031.3906,304.9375 1030.75,305.0781 Q1030.1094,305.2344 1029.4063,305.2344 Q1026.9063,305.2344 1025.5781,303.5938 Q1024.2656,301.9375 1024.2656,298.8125 Q1024.2656,295.6875 1025.5781,294.0313 Q1026.9063,292.375 1029.4063,292.375 Q1030.1094,292.375 1030.75,292.5313 Q1031.4063,292.6875 1031.9688,292.9844 L1031.9688,295.7031 Q1031.3438,295.125 1030.75,294.8594 Q1030.1563,294.5781 1029.5313,294.5781 Q1028.1875,294.5781 1027.5,295.6563 Q1026.8125,296.7188 1026.8125,298.8125 Q1026.8125,300.9063 1027.5,301.9844 Q1028.1875,303.0469 1029.5313,303.0469 Q1030.1563,303.0469 1030.75,302.7813 Q1031.3438,302.5 1031.9688,301.9219 L1031.9688,304.6406 Z " fill="#000000"/><text fill="#000000" font-family="sans-serif" font-size="14" lengthAdjust="spacing" textLength="127" x="1043" y="303.8467">IndexedFileAnchor</text></g><!--class ParameterizedType--><g id="elem_ParameterizedType"><rect codeLine="390" fill="#F1F1F1" height="32" id="ParameterizedType" rx="2.5" ry="2.5" style="stroke:#181818;stroke-width:0.5;" width="166" x="685.5" y="651"/><ellipse cx="700.5" cy="667" fill="#ADD1B2" rx="11" ry="11" style="stroke:#181818;stroke-width:1.0;"/><path d="M703.4688,672.6406 Q702.8906,672.9375 702.25,673.0781 Q701.6094,673.2344 700.9063,673.2344 Q698.4063,673.2344 697.0781,671.5938 Q695.7656,669.9375 695.7656,666.8125 Q695.7656,663.6875 697.0781,662.0313 Q698.4063,660.375 700.9063,660.375 Q701.6094,660.375 702.25,660.5313 Q702.9063,660.6875 703.4688,660.9844 L703.4688,663.7031 Q702.8438,663.125 702.25,662.8594 Q701.6563,662.5781 701.0313,662.5781 Q699.6875,662.5781 699,663.6563 Q698.3125,664.7188 698.3125,666.8125 Q698.3125,668.9063 699,669.9844 Q699.6875,671.0469 701.0313,671.0469 Q701.6563,671.0469 702.25,670.7813 Q702.8438,670.5 703.4688,669.9219 L703.4688,672.6406 Z " fill="#000000"/><text fill="#000000" font-family="sans-serif" font-size="14" lengthAdjust="spacing" textLength="134" x="714.5" y="671.8467">ParameterizedType</text></g><!--class ParameterizableClass--><g id="elem_ParameterizableClass"><rect codeLine="400" fill="#F1F1F1" height="32" id="ParameterizableClass" rx="2.5" ry="2.5" style="stroke:#181818;stroke-width:0.5;" width="180" x="886.5" y="651"/><ellipse cx="901.5" cy="667" fill="#ADD1B2" rx="11" ry="11" style="stroke:#181818;stroke-width:1.0;"/><path d="M904.4688,672.6406 Q903.8906,672.9375 903.25,673.0781 Q902.6094,673.2344 901.9063,673.2344 Q899.4063,673.2344 898.0781,671.5938 Q896.7656,669.9375 896.7656,666.8125 Q896.7656,663.6875 898.0781,662.0313 Q899.4063,660.375 901.9063,660.375 Q902.6094,660.375 903.25,660.5313 Q903.9063,660.6875 904.4688,660.9844 L904.4688,663.7031 Q903.8438,663.125 903.25,662.8594 Q902.6563,662.5781 902.0313,662.5781 Q900.6875,662.5781 900,663.6563 Q899.3125,664.7188 899.3125,666.8125 Q899.3125,668.9063 900,669.9844 Q900.6875,671.0469 902.0313,671.0469 Q902.6563,671.0469 903.25,670.7813 Q903.8438,670.5 904.4688,669.9219 L904.4688,672.6406 Z " fill="#000000"/><text fill="#000000" font-family="sans-serif" font-size="14" lengthAdjust="spacing" textLength="148" x="915.5" y="671.8467">ParameterizableClass</text></g><!--class ParameterType--><g id="elem_ParameterType"><rect codeLine="410" fill="#F1F1F1" height="32" id="ParameterType" rx="2.5" ry="2.5" style="stroke:#181818;stroke-width:0.5;" width="137" x="1050" y="559"/><ellipse cx="1065" cy="575" fill="#ADD1B2" rx="11" ry="11" style="stroke:#181818;stroke-width:1.0;"/><path d="M1067.9688,580.6406 Q1067.3906,580.9375 1066.75,581.0781 Q1066.1094,581.2344 1065.4063,581.2344 Q1062.9063,581.2344 1061.5781,579.5938 Q1060.2656,577.9375 1060.2656,574.8125 Q1060.2656,571.6875 1061.5781,570.0313 Q1062.9063,568.375 1065.4063,568.375 Q1066.1094,568.375 1066.75,568.5313 Q1067.4063,568.6875 1067.9688,568.9844 L1067.9688,571.7031 Q1067.3438,571.125 1066.75,570.8594 Q1066.1563,570.5781 1065.5313,570.5781 Q1064.1875,570.5781 1063.5,571.6563 Q1062.8125,572.7188 1062.8125,574.8125 Q1062.8125,576.9063 1063.5,577.9844 Q1064.1875,579.0469 1065.5313,579.0469 Q1066.1563,579.0469 1066.75,578.7813 Q1067.3438,578.5 1067.9688,577.9219 L1067.9688,580.6406 Z " fill="#000000"/><text fill="#000000" font-family="sans-serif" font-size="14" lengthAdjust="spacing" textLength="105" x="1079" y="579.8467">ParameterType</text></g><!--class PrimitiveType--><g id="elem_PrimitiveType"><rect codeLine="417" fill="#F1F1F1" height="32" id="PrimitiveType" rx="2.5" ry="2.5" style="stroke:#181818;stroke-width:0.5;" width="123" x="1222" y="559"/><ellipse cx="1237" cy="575" fill="#ADD1B2" rx="11" ry="11" style="stroke:#181818;stroke-width:1.0;"/><path d="M1239.9688,580.6406 Q1239.3906,580.9375 1238.75,581.0781 Q1238.1094,581.2344 1237.4063,581.2344 Q1234.9063,581.2344 1233.5781,579.5938 Q1232.2656,577.9375 1232.2656,574.8125 Q1232.2656,571.6875 1233.5781,570.0313 Q1234.9063,568.375 1237.4063,568.375 Q1238.1094,568.375 1238.75,568.5313 Q1239.4063,568.6875 1239.9688,568.9844 L1239.9688,571.7031 Q1239.3438,571.125 1238.75,570.8594 Q1238.1563,570.5781 1237.5313,570.5781 Q1236.1875,570.5781 1235.5,571.6563 Q1234.8125,572.7188 1234.8125,574.8125 Q1234.8125,576.9063 1235.5,577.9844 Q1236.1875,579.0469 1237.5313,579.0469 Q1238.1563,579.0469 1238.75,578.7813 Q1239.3438,578.5 1239.9688,577.9219 L1239.9688,580.6406 Z " fill="#000000"/><text fill="#000000" font-family="sans-serif" font-size="14" lengthAdjust="spacing" textLength="91" x="1251" y="579.8467">PrimitiveType</text></g><!--class FamixRepository--><g id="elem_FamixRepository"><rect codeLine="421" fill="#F1F1F1" height="32" id="FamixRepository" rx="2.5" ry="2.5" style="stroke:#181818;stroke-width:0.5;" width="145" x="747" y="7"/><ellipse cx="762" cy="23" fill="#ADD1B2" rx="11" ry="11" style="stroke:#181818;stroke-width:1.0;"/><path d="M764.9688,28.6406 Q764.3906,28.9375 763.75,29.0781 Q763.1094,29.2344 762.4063,29.2344 Q759.9063,29.2344 758.5781,27.5938 Q757.2656,25.9375 757.2656,22.8125 Q757.2656,19.6875 758.5781,18.0313 Q759.9063,16.375 762.4063,16.375 Q763.1094,16.375 763.75,16.5313 Q764.4063,16.6875 764.9688,16.9844 L764.9688,19.7031 Q764.3438,19.125 763.75,18.8594 Q763.1563,18.5781 762.5313,18.5781 Q761.1875,18.5781 760.5,19.6563 Q759.8125,20.7188 759.8125,22.8125 Q759.8125,24.9063 760.5,25.9844 Q761.1875,27.0469 762.5313,27.0469 Q763.1563,27.0469 763.75,26.7813 Q764.3438,26.5 764.9688,25.9219 L764.9688,28.6406 Z " fill="#000000"/><text fill="#000000" font-family="sans-serif" font-size="14" lengthAdjust="spacing" textLength="113" x="776" y="27.8467">FamixRepository</text></g><!--reverse link FamixBaseElement to Entity--><g id="link_FamixBaseElement_Entity"><path d="M630.5,59.61 C630.5,73.31 630.5,88.22 630.5,98.96 " fill="none" id="FamixBaseElement-backto-Entity" style="stroke:#181818;stroke-width:1.0;"/><polygon fill="none" points="623.5,59.27,630.5,39.27,637.5,59.27,623.5,59.27" style="stroke:#181818;stroke-width:1.0;"/></g><!--reverse link Entity to SourceLanguage--><g id="link_Entity_SourceLanguage"><path d="M576,130.95 C515.44,147.57 418.2,174.25 357.46,190.92 " fill="none" id="Entity-backto-SourceLanguage" style="stroke:#181818;stroke-width:1.0;"/><polygon fill="none" points="574.26,124.17,595.4,125.63,577.96,137.67,574.26,124.17" style="stroke:#181818;stroke-width:1.0;"/></g><!--reverse link SourcedEntity to Comment--><g id="link_SourcedEntity_Comment"><path d="M589.73,234.02 C564.9,249.87 534.04,269.57 513.18,282.89 " fill="none" id="SourcedEntity-backto-Comment" style="stroke:#181818;stroke-width:1.0;"/><polygon fill="none" points="586.28,227.92,606.9,223.06,593.81,239.73,586.28,227.92" style="stroke:#181818;stroke-width:1.0;"/></g><!--reverse link Entity to SourceAnchor--><g id="link_Entity_SourceAnchor"><path d="M685.19,131.72 C743.18,148.4 834.12,174.55 891.19,190.96 " fill="none" id="Entity-backto-SourceAnchor" style="stroke:#181818;stroke-width:1.0;"/><polygon fill="none" points="683.08,138.4,665.8,126.15,686.95,124.95,683.08,138.4" style="stroke:#181818;stroke-width:1.0;"/></g><!--reverse link Entity to SourcedEntity--><g id="link_Entity_SourcedEntity"><path d="M630.5,151.61 C630.5,165.31 630.5,180.22 630.5,190.96 " fill="none" id="Entity-backto-SourcedEntity" style="stroke:#181818;stroke-width:1.0;"/><polygon fill="none" points="623.5,151.27,630.5,131.27,637.5,151.27,623.5,151.27" style="stroke:#181818;stroke-width:1.0;"/></g><!--reverse link SourcedEntity to Association--><g id="link_SourcedEntity_Association"><path d="M630.5,243.61 C630.5,257.31 630.5,272.22 630.5,282.96 " fill="none" id="SourcedEntity-backto-Association" style="stroke:#181818;stroke-width:1.0;"/><polygon fill="none" points="623.5,243.27,630.5,223.27,637.5,243.27,623.5,243.27" style="stroke:#181818;stroke-width:1.0;"/></g><!--reverse link ScopingEntity to Namespace--><g id="link_ScopingEntity_Namespace"><path d="M458.75,509.56 C432.74,525.49 400.15,545.44 378.18,558.89 " fill="none" id="ScopingEntity-backto-Namespace" style="stroke:#181818;stroke-width:1.0;"/><polygon fill="none" points="455.18,503.54,475.9,499.06,462.49,515.48,455.18,503.54" style="stroke:#181818;stroke-width:1.0;"/></g><!--reverse link ContainerEntity to ScopingEntity--><g id="link_ContainerEntity_ScopingEntity"><path d="M830.99,411.01 C750.89,428.22 634.9,453.13 563.77,468.41 " fill="none" id="ContainerEntity-backto-ScopingEntity" style="stroke:#181818;stroke-width:1.0;"/><polygon fill="none" points="829.76,404.12,850.78,406.76,832.7,417.81,829.76,404.12" style="stroke:#181818;stroke-width:1.0;"/></g><!--reverse link ScopingEntity to ScriptEntity--><g id="link_ScopingEntity_ScriptEntity"><path d="M500.5,519.61 C500.5,533.31 500.5,548.22 500.5,558.96 " fill="none" id="ScopingEntity-backto-ScriptEntity" style="stroke:#181818;stroke-width:1.0;"/><polygon fill="none" points="493.5,519.27,500.5,499.27,507.5,519.27,493.5,519.27" style="stroke:#181818;stroke-width:1.0;"/></g><!--reverse link ScriptEntity to Module--><g id="link_ScriptEntity_Module"><path d="M500.5,611.61 C500.5,625.31 500.5,640.22 500.5,650.96 " fill="none" id="ScriptEntity-backto-Module" style="stroke:#181818;stroke-width:1.0;"/><polygon fill="none" points="493.5,611.27,500.5,591.27,507.5,611.27,493.5,611.27" style="stroke:#181818;stroke-width:1.0;"/></g><!--reverse link Association to ImportClause--><g id="link_Association_ImportClause"><path d="M554.98,316.42 C475.53,333.69 351.99,360.55 278.18,376.59 " fill="none" id="Association-backto-ImportClause" style="stroke:#181818;stroke-width:1.0;"/><polygon fill="none" points="553.64,309.55,574.67,312.14,556.61,323.23,553.64,309.55" style="stroke:#181818;stroke-width:1.0;"/></g><!--reverse link NamedEntity to Alias--><g id="link_NamedEntity_Alias"><path d="M958.88,326.25 C982.6,342.06 1011.95,361.63 1031.83,374.89 " fill="none" id="NamedEntity-backto-Alias" style="stroke:#181818;stroke-width:1.0;"/><polygon fill="none" points="954.85,331.98,942.1,315.06,962.62,320.33,954.85,331.98" style="stroke:#181818;stroke-width:1.0;"/></g><!--reverse link SourcedEntity to NamedEntity--><g id="link_SourcedEntity_NamedEntity"><path d="M698.14,229.06 C751.14,245.57 823.61,268.14 870.97,282.89 " fill="none" id="SourcedEntity-backto-NamedEntity" style="stroke:#181818;stroke-width:1.0;"/><polygon fill="none" points="695.89,235.69,678.87,223.06,700.05,222.33,695.89,235.69" style="stroke:#181818;stroke-width:1.0;"/></g><!--reverse link StructuralEntity to Parameter--><g id="link_StructuralEntity_Parameter"><path d="M1250.24,418.49 C1227.46,434.26 1199.38,453.7 1180.33,466.89 " fill="none" id="StructuralEntity-backto-Parameter" style="stroke:#181818;stroke-width:1.0;"/><polygon fill="none" points="1246.31,412.69,1266.74,407.06,1254.28,424.2,1246.31,412.69" style="stroke:#181818;stroke-width:1.0;"/></g><!--reverse link ContainerEntity to BehavioralEntity--><g id="link_ContainerEntity_BehavioralEntity"><path d="M875.16,417.1 C846.89,433.1 811.19,453.31 787.2,466.89 " fill="none" id="ContainerEntity-backto-BehavioralEntity" style="stroke:#181818;stroke-width:1.0;"/><polygon fill="none" points="872.03,410.82,892.89,407.06,878.93,423.01,872.03,410.82" style="stroke:#181818;stroke-width:1.0;"/></g><!--reverse link Association to Invocation--><g id="link_Association_Invocation"><path d="M566.95,321.5 C518.28,337.97 452.37,360.27 409.17,374.89 " fill="none" id="Association-backto-Invocation" style="stroke:#181818;stroke-width:1.0;"/><polygon fill="none" points="564.79,314.84,585.98,315.06,569.28,328.1,564.79,314.84" style="stroke:#181818;stroke-width:1.0;"/></g><!--reverse link Association to Reference--><g id="link_Association_Reference"><path d="M592.5,326.72 C570.13,342.45 542.66,361.76 523.99,374.89 " fill="none" id="Association-backto-Reference" style="stroke:#181818;stroke-width:1.0;"/><polygon fill="none" points="588.69,320.84,609.08,315.06,596.74,332.29,588.69,320.84" style="stroke:#181818;stroke-width:1.0;"/></g><!--reverse link BehavioralEntity to Function--><g id="link_BehavioralEntity_Function"><path d="M723.36,510.95 C701.75,526.64 675.32,545.83 657.32,558.89 " fill="none" id="BehavioralEntity-backto-Function" style="stroke:#181818;stroke-width:1.0;"/><polygon fill="none" points="719.45,505.15,739.75,499.06,727.67,516.48,719.45,505.15" style="stroke:#181818;stroke-width:1.0;"/></g><!--reverse link StructuralEntity to Variable--><g id="link_StructuralEntity_Variable"><path d="M1288.5,427.61 C1288.5,441.31 1288.5,456.22 1288.5,466.96 " fill="none" id="StructuralEntity-backto-Variable" style="stroke:#181818;stroke-width:1.0;"/><polygon fill="none" points="1281.5,427.27,1288.5,407.27,1295.5,427.27,1281.5,427.27" style="stroke:#181818;stroke-width:1.0;"/></g><!--reverse link NamedEntity to ContainerEntity--><g id="link_NamedEntity_ContainerEntity"><path d="M919.5,335.61 C919.5,349.31 919.5,364.22 919.5,374.96 " fill="none" id="NamedEntity-backto-ContainerEntity" style="stroke:#181818;stroke-width:1.0;"/><polygon fill="none" points="912.5,335.27,919.5,315.27,926.5,335.27,912.5,335.27" style="stroke:#181818;stroke-width:1.0;"/></g><!--reverse link ContainerEntity to Type--><g id="link_ContainerEntity_Type"><path d="M940.59,424.18 C950.16,438.77 961.01,455.31 968.64,466.96 " fill="none" id="ContainerEntity-backto-Type" style="stroke:#181818;stroke-width:1.0;"/><polygon fill="none" points="934.62,427.83,929.51,407.27,946.33,420.16,934.62,427.83" style="stroke:#181818;stroke-width:1.0;"/></g><!--reverse link NamedEntity to StructuralEntity--><g id="link_NamedEntity_StructuralEntity"><path d="M998.94,319.38 C1067.18,336.02 1164.18,359.68 1226.73,374.94 " fill="none" id="NamedEntity-backto-StructuralEntity" style="stroke:#181818;stroke-width:1.0;"/><polygon fill="none" points="996.97,326.1,979.2,314.56,1000.29,312.5,996.97,326.1" style="stroke:#181818;stroke-width:1.0;"/></g><!--reverse link Association to Access--><g id="link_Association_Access"><path d="M630.5,335.61 C630.5,349.31 630.5,364.22 630.5,374.96 " fill="none" id="Association-backto-Access" style="stroke:#181818;stroke-width:1.0;"/><polygon fill="none" points="623.5,335.27,630.5,315.27,637.5,335.27,623.5,335.27" style="stroke:#181818;stroke-width:1.0;"/></g><!--reverse link SourceLanguage to CSourceLanguage--><g id="link_SourceLanguage_CSourceLanguage"><path d="M247.7,230.83 C208.54,247.15 156.92,268.66 122.77,282.89 " fill="none" id="SourceLanguage-backto-CSourceLanguage" style="stroke:#181818;stroke-width:1.0;"/><polygon fill="none" points="245.19,224.29,266.35,223.06,250.58,237.22,245.19,224.29" style="stroke:#181818;stroke-width:1.0;"/></g><!--reverse link BehavioralEntity to Method--><g id="link_BehavioralEntity_Method"><path d="M760.5,519.61 C760.5,533.31 760.5,548.22 760.5,558.96 " fill="none" id="BehavioralEntity-backto-Method" style="stroke:#181818;stroke-width:1.0;"/><polygon fill="none" points="753.5,519.27,760.5,499.27,767.5,519.27,753.5,519.27" style="stroke:#181818;stroke-width:1.0;"/></g><!--reverse link StructuralEntity to Field--><g id="link_StructuralEntity_Field"><path d="M1322.85,420.1 C1341.78,435.6 1364.54,454.21 1380.12,466.96 " fill="none" id="StructuralEntity-backto-Field" style="stroke:#181818;stroke-width:1.0;"/><polygon fill="none" points="1318.21,425.35,1307.16,407.27,1327.07,414.51,1318.21,425.35" style="stroke:#181818;stroke-width:1.0;"/></g><!--reverse link Association to Inheritance--><g id="link_Association_Inheritance"><path d="M669.05,326.49 C692.01,342.26 720.3,361.7 739.5,374.89 " fill="none" id="Association-backto-Inheritance" style="stroke:#181818;stroke-width:1.0;"/><polygon fill="none" points="664.95,332.16,652.43,315.06,672.87,320.62,664.95,332.16" style="stroke:#181818;stroke-width:1.0;"/></g><!--reverse link Type to Class--><g id="link_Type_Class"><path d="M945.12,512.34 C926.93,527.79 905.15,546.28 890.22,558.96 " fill="none" id="Type-backto-Class" style="stroke:#181818;stroke-width:1.0;"/><polygon fill="none" points="940.74,506.88,960.52,499.27,949.8,517.55,940.74,506.88" style="stroke:#181818;stroke-width:1.0;"/></g><!--reverse link SourceLanguage to CustomSourceLanguage--><g id="link_SourceLanguage_CustomSourceLanguage"><path d="M302.5,243.61 C302.5,257.31 302.5,272.22 302.5,282.96 " fill="none" id="SourceLanguage-backto-CustomSourceLanguage" style="stroke:#181818;stroke-width:1.0;"/><polygon fill="none" points="295.5,243.27,302.5,223.27,309.5,243.27,295.5,243.27" style="stroke:#181818;stroke-width:1.0;"/></g><!--reverse link Type to Enum--><g id="link_Type_Enum"><path d="M978.5,519.61 C978.5,533.31 978.5,548.22 978.5,558.96 " fill="none" id="Type-backto-Enum" style="stroke:#181818;stroke-width:1.0;"/><polygon fill="none" points="971.5,519.27,978.5,499.27,985.5,519.27,971.5,519.27" style="stroke:#181818;stroke-width:1.0;"/></g><!--reverse link StructuralEntity to EnumValue--><g id="link_StructuralEntity_EnumValue"><path d="M1346.21,414.39 C1388.41,430.76 1444.53,452.53 1481.54,466.89 " fill="none" id="StructuralEntity-backto-EnumValue" style="stroke:#181818;stroke-width:1.0;"/><polygon fill="none" points="1343.45,420.82,1327.33,407.06,1348.51,407.77,1343.45,420.82" style="stroke:#181818;stroke-width:1.0;"/></g><!--reverse link Variable to ImplicitVariable--><g id="link_Variable_ImplicitVariable"><path d="M1332.56,509.1 C1360.65,525.1 1396.13,545.31 1419.97,558.89 " fill="none" id="Variable-backto-ImplicitVariable" style="stroke:#181818;stroke-width:1.0;"/><polygon fill="none" points="1328.86,515.05,1314.95,499.06,1335.79,502.88,1328.86,515.05" style="stroke:#181818;stroke-width:1.0;"/></g><!--reverse link SourceAnchor to IndexedFileAnchor--><g id="link_SourceAnchor_IndexedFileAnchor"><path d="M986.1,233.56 C1012.64,249.49 1045.9,269.44 1068.31,282.89 " fill="none" id="SourceAnchor-backto-IndexedFileAnchor" style="stroke:#181818;stroke-width:1.0;"/><polygon fill="none" points="982.16,239.36,968.61,223.06,989.36,227.35,982.16,239.36" style="stroke:#181818;stroke-width:1.0;"/></g><!--reverse link Class to ParameterizedType--><g id="link_Class_ParameterizedType"><path d="M839.48,604.58 C821.69,619.97 800.46,638.34 785.88,650.96 " fill="none" id="Class-backto-ParameterizedType" style="stroke:#181818;stroke-width:1.0;"/><polygon fill="none" points="835.15,599.06,854.86,591.27,844.32,609.65,835.15,599.06" style="stroke:#181818;stroke-width:1.0;"/></g><!--reverse link Class to ParameterizableClass--><g id="link_Class_ParameterizableClass"><path d="M905.52,604.58 C923.31,619.97 944.54,638.34 959.12,650.96 " fill="none" id="Class-backto-ParameterizableClass" style="stroke:#181818;stroke-width:1.0;"/><polygon fill="none" points="900.68,609.65,890.14,591.27,909.85,599.06,900.68,609.65" style="stroke:#181818;stroke-width:1.0;"/></g><!--reverse link Type to ParameterType--><g id="link_Type_ParameterType"><path d="M1018.98,510.02 C1043.63,525.87 1074.27,545.57 1094.99,558.89 " fill="none" id="Type-backto-ParameterType" style="stroke:#181818;stroke-width:1.0;"/><polygon fill="none" points="1014.97,515.77,1001.93,499.06,1022.54,503.99,1014.97,515.77" style="stroke:#181818;stroke-width:1.0;"/></g><!--reverse link Type to PrimitiveType--><g id="link_Type_PrimitiveType"><path d="M1030.93,499.47 C1087.43,516.14 1176.73,542.49 1232.62,558.99 " fill="none" id="Type-backto-PrimitiveType" style="stroke:#181818;stroke-width:1.0;"/><polygon fill="none" points="1028.92,506.18,1011.72,493.8,1032.88,492.75,1028.92,506.18" style="stroke:#181818;stroke-width:1.0;"/></g><!--SRC=[rLnVR-Cs4d_lf_2zgRXkFu1G173IvEf3iycjW_PnGKjqJ5IM355Aurlqkn___naE9I-kLk_sOTVY_3Wp70vdXXIrVsDjrOmrNV7VMCk_Dq_VdyPZyqtL4CvN3-J8tl-vVVfu_txg-e7sgo_VhCIV3xIXHzeEfKRS4axlTOicxyRzdlRhlYVdSaNQisvLsEUUxjbxkU93pzfNHVWxgUldlZlHVZWNBJbII_rkTHBDvMfiVskxtzjlozLRnshTvvKEKh7YMyVg3wFqVJkmuRoYxmDjQvveQ8Q0C02wCCfVEZlmWfeVPMeKgvTLODkDVKL_9kthI5wfKyJePIp85QXMZK9IkThIuOTjq7Y-SNfkOwnKEOSMwaVDHIX7J4P4d37edsMFk-we36yD4UbWxL5fq5tN3eIracy4SpewWB922k4XP8PfEFvG0UNPeH6CND4EpSCz1MUma8trkDPjTUZwZCUvDOiRrYoFl5aj0EUpw3XhiCRZWJA-7SPTkTfrNKD9wrJQg7QfL4JXZW8wHkx10mENaRd1CjMDtemXY0DGdYdccYP8cELq4xYc9jku40E4qKr3uVcObaXAJOM9Urh7uQi4uSn9_H65-t777NYsmsLY5tAlDUTTnSZ0kdOwN14F_2Y0PTZJAIafKic4nWrjYaiqDm5G9D0treqS5scfER6EFiTn8OD_5EcUdqZbq-Iswav2Gcpka_2GTf0awHaXme_SGvGJfY0UW_8y8zEtut57-wVzUX0Ztus3pDMwpSzp0f4QX22EWlAibugcaQtj3BXq2JBqWJMrC9cRCXEFtBEFI1vYOn842ULTKw4ukyVIEyLYPkZPQG1MGFtGpjZFmZpyQV-Y5ct66mBCX3k4g0dkg4lU7KXFAZ6Wl4jwo8GE0IZFUg6vUEpgiGcZGJ0rDhyVPTUxXepS-k0cQF9k6BOwJqIWGksmjGW5bAkGj90HGf7E565kYYmXMMgpWP7h8ZaayO04EqSkPeXkto2N9AmODn56YafGF45DC8uKE2gTjYTQiJsJIe9w_36c8tKvH6GuBbLPD8nmDvV1g5r58G7J1b-7a9ozOr2Uwu897fRhQ4Mr7vlc_AzHA2ncHsM3PCuV4WWoxGWeppfokPvMbBtHUjE-TPLQPpQwk0OVMpwbO1TX85oOCOKNgJWHQznlP3LU4EikYd85QVMFV6pxq6BsprXSDRSvgseFDBehvxm13ksK3gb2M_MeFRZKwsSXdnLLeXYDFEvo7ZlqOpMCFMcmkjIkhbjw8AAITYXGc_frYmCv0BRqT_qCuIc3XGm3nSwLZ9ozjaIOBNMbhQKW_kHfIV_8iqvscenpkMcx2Grl8DR784XQnJOLZcFfVG2jl9u3qPdAAnQTgRm2K9vr70fQiOiNbhWeI6rIy5IGIk55AYuRfEn6_kKiDrJox-IiG3PA1JoH0sBAPAcIomrggk2gI5kpcWmsdi454HpAEAIrU0OhpsSijd3yfvUuJLKzNYUOPDFdIWH7Hzd4nrx24f8E5hXVnuek1Q48xX0PHh6mQuQBA_hE9xgd8avNaxMwFkkRiAIYJrfI8pAC8aiEf1SimIfyKOt9-ZFDOPU5xFOmjbMqufBySlLtDR-Gdf5TkE6yADFd9X4c-jnKHhX9rekzeuaJ-CH6HQiBEioP153dRGCxN2OrFZOt1rOnnhri0rs3q9thvm_OiPuoaCkUKFCAQPnH_5mrtL54Z-gkEvuQ-gvwW3hZ3W4XbGOAcnA0rZlRGUGay-uWK-zuo4Iz4u3oh2CDkd5uxOIdknXhPiyz-tbxIg1smY1OJ5K2BX99fG_ig57CCTrTLzEvGq29cJy4LAW9xgXXBYe4drBmL26OmejKNBOG99KmlT_ogQTWpsUeRjCNqkMkJpqNcedOzwb_qNKjCvKH8dzw4OfW-GSamLqLcOe1Nc4wvZOt6G7syIOuZ300AmX0X33ReWNQfzBblKZmcyb4Hg1DJ5wWRN420KG8j2s5PLQw1BTG7f7sd7sHu5_7vv96z9O_boZ2z_mvZd5zQN8xvR-ouV1ZjDLG5of0xWzkO6HxkiiOU5zv7yFsJRho7ALCof1e7BkuJ6AvyUHt9xUp7EPtBP2ISDZD06RsE7RhUK7atoJGYSYVW8j4KYRoN_CL52mx9memg-vwCivk02eNRsDS4JD7u-__zqPV3sXgfwPJJpSHdjO6CHMT72RB3Wt_wT9F4e2QIHJ40r2U8PAiD_pNdibJX_JEZ2BWbsOq2UUmrBubSzaED5zz7_b8XqDNpsrauIvITitl7JrrPiSeWN7evEkT622f1cn6BGsVL4T5c00Xmfzr2fFEdSe9oBYe481pWmBbIBUiHXtL4JF271dZ0mGzz-oDuEl1a70XbfXoW0B6NSCgbB-YPDXhMj8zqRuRQ3NG6jVV47CZi6ICpr87GumszUoHp86OYTHNUE1GVmh9s61Z0CuDld0GoqvdhFzoxGPCu6jlzNRQ97LjrvlmhRScssmU0OJbBQ2mZ1O-2jsq1oho09ax31s55DK3MdBhAAaT0rh282xqnrs6-IxBUcSPxt9ihvd6rD_MO6eJPJTBahBXBvGFTuIZ4SdIy0Njg3bEyVPNWpQjK7AlBcEbyXmH5-Z9MMQOo3yXO-KuHUBsChRONRty7Mpf5SdjvmEYtCpBnqBrBdM0YXUkAW0CNrqD1CjM4otdY2mNhNekD8lIr1B0eOLx1MlB7VMubfju1OLOVz83qN9t2j0555M6QngkiejLsds5GhjOdTqbobnpROvyw8vVKsT-g90k7x_sHiKSauM6Vz-EHpGoKK7uXJIZdVbx-nmUMKcodMu8K0TMuh5mdCgLmomuEYNlAry0oNxPxE-9quMxn2rter0KZ6n8tdUvXY_NBmrg-av576tWTohHnolka0EWjmFfX-SkVG5X2SZvkYFDSWCdJm1ztzQOPDsCo3M46JuWBJLuY7Wm1EogcoN1palVasB_rWSv_kHNqQELym_Q2c1LXhsaus65jC5AbVDe3j4No8cFFlhNCVYk9dw7iBP4_3s29HUMoQ9dMDZGihQFfmZUbRBjo9qfroMvEmKwXNUeBAb899Ufl-3NkJ0rCohYwcLKYzK2AlqLinSjcJ2r_e-kc6lQf6T7Dh0tchF9DKyR9E0JFNMS3LqFlvUqMmNm6V6D2TkoMHdANIkG3o5rvdiP3NhCRHyqUV9jv0TMttLZgmOBCfJIMfSRj-TDNR0wI3xejzkWbo7Tdf5hrGzJrwfnvf_LfTy6NgZ0ZGlHylsHMiF3WUhLwwJDC7bmimJlAGUhmm7DTWmWTIk0kZUy06pR0Tn_ygG_HW0sS-HSj-pdL9_rtb4rhxb0FFJTKGzO-JWGb9mScVuwEbpA8GYpdrdBXaToafqUkvesSe2q2Sr7JZzep_jE_ey0FZmddnN3UPpzx9-O_VugMCx81__Uz_Np5zllZzKLOij_0000]--></g></svg>